<?xml version="1.0" encoding="UTF-8"?><svg xmlns="http://www.w3.org/2000/svg" xmlns:xlink="http://www.w3.org/1999/xlink" contentScriptType="text/ecmascript" width="750pt" zoomAndPan="magnify" contentStyleType="text/css" viewBox="0 0 750 299.999988" height="299.999988pt" preserveAspectRatio="xMidYMid meet" version="1.2"><defs><g/></defs><g xml:id="surface1" id="surface1"><rect x="0" width="750" y="0" height="299.999988" style="fill:rgb(100%,100%,100%);fill-opacity:1;stroke:none;"/><rect x="0" width="750" y="0" height="299.999988" style="fill:rgb(88.62915%,90.979004%,86.669922%);fill-opacity:1;stroke:none;"/><path style="fill:none;stroke-width:0.375833;stroke-linecap:butt;stroke-linejoin:miter;stroke:rgb(21.569824%,21.569824%,21.569824%);stroke-opacity:1;stroke-miterlimit:4;" d="M 3.392218 47.952186 L 20.286942 1.712498 L 31.496201 1.712498 L 14.601477 47.952186 Z M 28.587602 47.952186 L 45.482326 1.712498 L 56.691584 1.712498 L 39.79686 47.952186 Z M 53.782985 47.952186 L 70.677709 1.712498 L 81.886968 1.712498 L 64.993741 47.952186 Z M 78.979866 47.952186 L 95.873092 1.712498 L 107.083848 1.712498 L 90.189124 47.952186 Z M 104.175249 47.952186 L 121.069973 1.712498 L 132.279231 1.712498 L 115.384508 47.952186 Z M 129.370632 47.952186 L 146.265356 1.712498 L 157.474615 1.712498 L 140.579891 47.952186 Z M 154.566016 47.952186 L 171.46074 1.712498 L 182.669998 1.712498 L 165.775274 47.952186 Z M 154.566016 47.952186 " transform="matrix(0.00000000000000016,-2.60945,2.60945,0.00000000000000016,81.343823,155.914324)"/><path style="fill:none;stroke-width:0.375833;stroke-linecap:butt;stroke-linejoin:miter;stroke:rgb(21.569824%,21.569824%,21.569824%);stroke-opacity:1;stroke-miterlimit:4;" d="M 3.39201 47.951848 L 20.286733 1.712159 L 31.495992 1.712159 L 14.601268 47.951848 Z M 28.587393 47.951848 L 45.482117 1.712159 L 56.691375 1.712159 L 39.798149 47.951848 Z M 53.782776 47.951848 L 70.6775 1.712159 L 81.888256 1.712159 L 64.993532 47.951848 Z M 78.979657 47.951848 L 95.872884 1.712159 L 107.083639 1.712159 L 90.188915 47.951848 Z M 104.17504 47.951848 L 121.069764 1.712159 L 132.279023 1.712159 L 115.384299 47.951848 Z M 129.370424 47.951848 L 146.265147 1.712159 L 157.474406 1.712159 L 140.579682 47.951848 Z M 154.565807 47.951848 L 171.460531 1.712159 L 182.669789 1.712159 L 165.776563 47.951848 Z M 154.565807 47.951848 " transform="matrix(0.00000000000000016,-2.60945,2.60945,0.00000000000000016,32.094706,124.620811)"/><path style=" stroke:none;fill-rule:nonzero;fill:rgb(21.569824%,21.569824%,21.569824%);fill-opacity:1;" d="M -199.175781 236.429688 L -112.394531 18.171875 L 174.773438 132.351562 L 87.992188 350.609375 Z M -199.175781 236.429688 "/><path style=" stroke:none;fill-rule:nonzero;fill:rgb(13.328552%,28.239441%,43.919373%);fill-opacity:1;" d="M 10.085938 361.355469 L 10.085938 131.554688 L 174.472656 131.554688 L 174.472656 361.355469 Z M 10.085938 361.355469 "/><g style="fill:rgb(88.62915%,90.979004%,86.669922%);fill-opacity:1;"><g transform="translate(129.955231, 313.414571)"><path style="stroke:none;" d="M 15.546875 -2.140625 L -105.125 -46.21875 L -105.125 -75.453125 L 15.546875 -31.375 Z M 15.546875 -2.140625 "/></g></g><g style="fill:rgb(88.62915%,90.979004%,86.669922%);fill-opacity:1;"><g transform="translate(129.955231, 247.66011)"><path style="stroke:none;" d="M 15.546875 -2.140625 L -105.125 -46.21875 L -105.125 -75.453125 L 15.546875 -31.375 Z M 15.546875 -2.140625 "/></g></g><g style="fill:rgb(88.62915%,90.979004%,86.669922%);fill-opacity:1;"><g transform="translate(129.955231, 181.905649)"><path style="stroke:none;" d="M 15.546875 -2.140625 L -105.125 -46.21875 L -105.125 -75.453125 L 15.546875 -31.375 Z M 15.546875 -2.140625 "/></g></g><path style="fill:none;stroke-width:1.999999;stroke-linecap:butt;stroke-linejoin:miter;stroke:rgb(21.569824%,21.569824%,21.569824%);stroke-opacity:1;stroke-miterlimit:4;" d="M 44.270452 -0.64977 C 45.049321 -0.64782 45.704047 -0.379569 46.23463 0.154985 C 46.770287 0.68589 47.039679 1.338953 47.041377 2.122896 L 47.041175 38.225229 C 47.042873 39.009173 46.760824 39.666121 46.207398 40.202575 C 45.659047 40.73538 45.016134 40.997475 44.268508 40.996155 C 43.484565 40.997853 42.824764 40.73325 42.289107 40.202345 C 41.758524 39.667792 41.494207 39.011081 41.492508 38.227137 L 41.49187 11.716736 L 28.580323 38.019328 C 27.977946 38.937373 27.180905 39.402652 26.183331 39.396293 C 25.014314 39.397729 24.163998 38.846728 23.632381 37.743288 L 10.885935 12.198671 L 10.885077 38.225193 C 10.886776 39.009136 10.61345 39.667511 10.07747 40.206817 C 9.547991 40.733751 8.89128 40.998068 8.112411 40.996118 C 7.323393 41.001465 6.663592 40.736862 6.133009 40.202309 C 5.602426 39.667755 5.33811 39.011044 5.336411 38.227101 L 5.336614 2.124768 C 5.334915 1.340824 5.603167 0.686098 6.132646 0.159163 C 6.659902 -0.381569 7.321688 -0.649534 8.114355 -0.649806 C 9.167119 -0.652337 9.989674 -0.150655 10.560925 0.847313 L 26.407082 32.576917 L 41.804804 0.845835 C 42.38005 -0.152773 43.200241 -0.650092 44.270452 -0.64977 Z M 76.946815 41.5337 C 72.827263 41.531913 69.156093 40.622729 65.936953 38.811224 C 62.722887 36.99607 60.229542 34.4703 58.449619 31.223762 C 56.671123 27.968502 55.77912 24.276022 55.778684 20.142673 C 55.776823 16.018048 56.66856 12.344025 58.450248 9.115532 C 60.224638 5.87689 62.72487 3.348022 65.93207 1.5348 C 69.156717 -0.27557 72.829529 -1.184223 76.94908 -1.182436 C 81.037387 -1.181279 84.691111 -0.274948 87.910252 1.536557 C 91.13304 3.353137 93.640184 5.876686 95.426607 9.110851 C 97.221753 12.346443 98.121683 16.017829 98.123544 20.142455 C 98.120332 24.270729 97.220668 27.965845 95.425978 31.219082 C 93.636364 34.468669 91.144855 36.998963 87.937655 38.812185 C 84.739178 40.626833 81.07144 41.531838 76.946815 41.5337 Z M 76.951645 36.519028 C 79.969741 36.519863 82.684814 35.799443 85.100512 34.362844 C 87.521285 32.922596 89.410048 30.956517 90.765376 28.473331 C 92.117056 25.985071 92.795768 23.203186 92.79501 20.140049 C 92.792826 17.085634 92.117282 14.315204 90.763302 11.832408 C 89.410747 9.340888 87.536011 7.386453 85.140519 5.960378 C 82.743601 4.543026 80.012462 3.82783 76.949324 3.828587 C 73.89491 3.830771 71.163817 4.539615 68.759694 5.960195 C 66.367943 7.387275 64.489328 9.346057 63.137649 11.834317 C 61.791043 14.318929 61.118833 17.088442 61.121016 20.142857 C 61.116699 23.209643 61.787169 25.983721 63.139723 28.475241 C 64.493704 30.958037 66.372088 32.917547 68.787249 34.360272 C 71.207484 35.799348 73.928473 36.521841 76.951645 36.519028 Z M 109.594199 41.000404 C 108.801532 41.000676 108.146806 40.732425 107.614797 40.206594 C 107.089289 39.668392 106.821324 39.006607 106.823274 38.227738 L 106.819828 2.12033 C 106.818759 1.305143 107.088437 0.641694 107.615063 0.132205 C 108.148191 -0.389655 108.804902 -0.653971 109.592494 -0.650595 L 122.341295 -0.648622 C 124.719295 -0.649439 126.836471 -0.177918 128.679025 0.768164 C 130.531729 1.706949 131.983078 3.01897 133.031646 4.71295 C 134.081641 6.398207 134.607029 8.306685 134.602736 10.442032 C 134.60378 12.188658 134.133448 13.750745 133.18524 15.140665 C 132.24718 16.523288 130.963182 17.638883 129.319449 18.489674 C 131.742097 19.064873 133.64336 20.199677 135.020384 21.911531 C 136.412633 23.61244 137.106646 25.776869 137.106073 28.409893 C 137.108483 30.832934 136.5296 33.004206 135.374498 34.920063 C 134.219396 36.835919 132.600179 38.331085 130.518274 39.396837 C 128.445092 40.464016 126.091276 41.00168 123.458252 41.001107 Z M 122.341218 16.471106 C 124.432951 16.468268 126.111148 15.95449 127.368513 14.919624 C 128.634601 13.886184 129.268614 12.39116 129.269127 10.443274 C 129.265992 8.490314 128.635832 7.00356 127.368498 5.990309 C 126.106239 4.97341 124.433605 4.467092 122.338224 4.464856 L 112.369941 4.465178 L 112.364213 16.470003 Z M 123.457675 35.882555 C 125.943204 35.881405 127.95158 35.238006 129.475509 33.94221 C 131.013235 32.644192 131.780578 30.799284 131.781187 28.412561 C 131.779442 26.204577 131.02079 24.517693 129.501582 23.346832 C 127.996171 22.17375 125.978894 21.584219 123.462122 21.584739 L 112.369865 21.584906 L 112.365418 35.882722 Z M 148.150817 40.998826 C 147.35815 40.999099 146.698349 40.734496 146.171415 40.205017 C 145.640832 39.670463 145.377941 39.005029 145.379891 38.22616 L 145.380094 2.123827 C 145.379025 1.30864 145.63998 0.643765 146.171681 0.130628 C 146.699734 -0.387584 147.365168 -0.650474 148.149112 -0.652173 C 148.967947 -0.648167 149.629174 -0.392287 150.143737 0.130691 C 150.664801 0.641298 150.927691 1.306732 150.923685 2.125568 L 150.923483 38.227901 C 150.921533 39.00677 150.665653 39.667996 150.143471 40.20508 C 149.631438 40.734867 148.966004 40.997757 148.150817 40.998826 Z M 164.294064 41.000471 C 163.515195 40.998521 162.872841 40.73677 162.359704 40.205069 C 161.842918 39.668293 161.592399 39.009359 161.590701 38.225416 L 161.590903 2.123083 C 161.589205 1.339139 161.852382 0.688062 162.386935 0.157479 C 162.914192 -0.383253 163.553457 -0.650422 164.297434 -0.654177 C 165.085026 -0.650801 165.748475 -0.381123 166.273983 0.157079 C 166.805992 0.682909 167.070309 1.33962 167.072008 2.123564 L 167.072675 35.454101 L 186.377866 35.453229 C 187.16181 35.45153 187.816536 35.719782 188.345693 36.263058 C 188.886425 36.790315 189.150742 37.447026 189.148792 38.225895 C 189.15049 39.009839 188.885887 39.669639 188.346259 40.203871 C 187.815354 40.739528 187.163718 41.000197 186.379774 41.001895 Z M 198.601082 40.998235 C 197.808415 40.998508 197.148614 40.733905 196.62168 40.204426 C 196.091097 39.669872 195.823132 39.008087 195.825082 38.229218 L 195.82671 2.118162 C 195.825642 1.302974 196.090245 0.643174 196.621946 0.130037 C 197.149999 -0.388175 197.80671 -0.652491 198.599377 -0.652764 L 222.700534 -0.653215 C 223.515721 -0.654284 224.169651 -0.408553 224.667398 0.0803295 C 225.171645 0.55684 225.422794 1.18453 225.420844 1.963399 C 225.419524 2.711025 225.168553 3.314839 224.667929 3.774841 C 224.167305 4.234844 223.516298 4.464268 222.701111 4.465337 L 201.37175 4.466658 L 201.37409 17.435591 L 216.670906 17.437674 C 217.451201 17.430901 218.101483 17.671558 218.614453 18.149495 C 219.132499 18.623783 219.390148 19.239101 219.393903 19.983078 C 219.392583 20.730704 219.130036 21.350538 218.607688 21.833857 C 218.099137 22.314954 217.451779 22.549453 216.667835 22.551152 L 201.371018 22.549069 L 201.3723 35.880554 L 222.696587 35.882881 C 223.511774 35.881812 224.172205 36.115171 224.665507 36.576459 C 225.168958 37.030449 225.419311 37.635618 225.417991 38.383243 C 225.41969 39.167187 225.16444 39.79717 224.66826 40.284768 C 224.169859 40.758568 223.512351 41.000364 222.697164 41.001433 Z M 264.299074 37.109197 C 264.474865 37.567834 264.563259 37.958445 264.560609 38.275956 C 264.559289 39.023582 264.292463 39.669585 263.752835 40.203816 C 263.227005 40.735825 262.570294 41.000142 261.78635 41.00184 C 261.253782 40.999855 260.750532 40.84593 260.262804 40.542287 C 259.783798 40.240071 259.444658 39.8219 259.235234 39.295072 L 256.23906 31.819409 L 237.103885 31.821208 L 234.055143 39.293775 C 233.811932 39.82273 233.457211 40.239414 232.985905 40.547477 C 232.524749 40.848243 232.034073 41.000883 231.501505 40.998898 C 230.717561 41.000597 230.06791 40.728697 229.548902 40.178124 C 229.034969 39.623902 228.783024 38.973691 228.779269 38.229714 C 228.783975 37.872237 228.868449 37.465106 229.042839 37.001027 L 244.024771 1.21199 C 244.563663 -0.0299005 245.440138 -0.65236 246.644047 -0.648093 C 247.920592 -0.649862 248.790743 -0.0284463 249.259575 1.212506 Z M 238.9642 27.235274 L 254.377268 27.238451 L 246.747145 8.253295 Z M 283.861352 41.534407 C 280.413141 41.534903 277.277094 40.749031 274.446711 39.189163 C 271.62505 37.630721 269.684642 35.584943 268.615337 33.059126 C 268.430193 32.630307 268.339742 32.279662 268.338114 31.98832 C 268.340099 31.455752 268.534787 30.977079 268.928049 30.571173 C 269.326385 30.161619 269.859548 29.88606 270.526111 29.753219 C 270.639344 29.717994 270.817287 29.697827 271.063588 29.697791 C 271.632474 29.696758 272.177913 29.866537 272.691181 30.205701 C 273.210949 30.532495 273.593074 30.98904 273.835334 31.561539 C 274.477533 32.947265 275.740291 34.125458 277.625035 35.087394 C 279.50613 36.044255 281.586988 36.518794 283.861107 36.523384 C 286.530449 36.520938 288.79322 35.910174 290.645771 34.686017 C 292.491026 33.45171 293.415086 31.771244 293.417952 29.64462 C 293.413854 27.615375 292.632515 25.875522 291.06236 24.441082 C 289.498705 22.994269 287.120896 22.117413 283.926711 21.796713 C 279.518136 21.371515 276.047061 20.087538 273.518561 17.941136 C 270.995136 15.791085 269.734222 13.095122 269.730743 9.856893 C 269.735333 7.582774 270.378795 5.619095 271.6735 3.972357 C 272.974707 2.313248 274.75303 1.050086 277.013543 0.179223 C 279.270407 -0.696714 281.804721 -1.133219 284.616483 -1.130293 C 287.670898 -1.132476 290.246282 -0.505438 292.33534 0.740674 C 294.438194 1.984563 296.216478 3.762019 297.675266 6.069392 C 298.098023 6.74305 298.315076 7.387556 298.314053 7.996409 C 298.312103 8.775278 297.956622 9.415743 297.249034 9.909081 C 296.853847 10.162417 296.395044 10.284444 295.866124 10.287533 C 295.333556 10.285548 294.836177 10.150495 294.365265 9.880948 C 293.90815 9.609179 293.550304 9.250643 293.303302 8.789321 C 292.346576 7.190961 291.148361 5.974062 289.703583 5.142271 C 288.265306 4.298109 286.439639 3.878724 284.240378 3.881895 C 281.536144 3.878636 279.350122 4.40343 277.673588 5.45485 C 276.010852 6.504048 275.180023 8.02511 275.177454 10.012963 C 275.175182 11.862043 275.920334 13.412377 277.417984 14.660319 C 278.908337 15.898111 281.573673 16.714501 285.410344 17.104415 C 289.683795 17.534391 292.988503 18.822514 295.328114 20.97386 C 297.676449 23.126632 298.846984 25.964553 298.846219 29.475251 C 298.848332 32.037065 298.148919 34.233413 296.765426 36.067149 C 295.387007 37.897237 293.54653 39.266667 291.256366 40.181941 C 288.963979 41.083417 286.49945 41.531332 283.861352 41.534407 Z M 335.118361 -0.652246 C 335.789701 -0.649964 336.344826 -0.402474 336.785956 0.104021 C 337.233587 0.598144 337.461419 1.204109 337.462155 1.911768 C 337.462559 2.511898 337.28565 3.100952 336.927779 3.673855 L 322.580015 25.8054 L 322.582118 38.227967 C 322.580168 39.006836 322.31049 39.670285 321.770862 40.204516 C 321.245032 40.736525 320.588321 41.000842 319.809452 40.998892 C 319.061826 40.997572 318.419472 40.735821 317.883814 40.204916 C 317.349583 39.665288 317.085266 39.008577 317.087216 38.229708 L 317.085113 25.807141 L 302.854691 3.669554 C 302.456843 3.062662 302.258199 2.497293 302.255109 1.968373 C 302.256429 1.220748 302.532774 0.598691 303.079069 0.105853 C 303.631865 -0.399357 304.282075 -0.651303 305.0297 -0.649983 C 305.603661 -0.654665 306.066148 -0.525316 306.423661 -0.274309 C 306.777526 -0.0283761 307.134742 0.361403 307.490235 0.898678 L 319.961638 20.675329 L 332.657289 0.678417 C 333.227793 -0.209014 334.051798 -0.647493 335.118361 -0.652246 Z M 381.995441 -0.654861 C 382.77431 -0.652911 383.432684 -0.379585 383.963267 0.154968 C 384.498925 0.685873 384.768316 1.338936 384.770014 2.12288 L 384.769812 38.225213 C 384.767862 39.004082 384.489461 39.666105 383.936036 40.202558 C 383.387685 40.735364 382.739696 41.001107 381.992071 40.999787 C 381.213202 40.997837 380.553402 40.733234 380.012669 40.205977 C 379.487161 39.667775 379.219196 39.00599 379.221146 38.227121 L 379.220507 11.71672 L 366.30896 38.019312 C 365.706583 38.937356 364.905894 39.397561 363.911968 39.396276 C 362.737877 39.401361 361.88756 38.85036 361.355944 37.74692 L 348.609498 12.202303 L 348.613714 38.225176 C 348.611765 39.004045 348.342087 39.667494 347.806107 40.2068 C 347.276629 40.733735 346.619917 40.998052 345.835974 40.99975 C 345.048382 40.996374 344.388581 40.731771 343.856572 40.205941 C 343.331064 39.667739 343.063099 39.005953 343.065048 38.227084 L 343.065251 2.124751 C 343.063552 1.340808 343.331804 0.686082 343.857634 0.154072 C 344.388539 -0.381585 345.050325 -0.64955 345.834269 -0.651249 C 346.895757 -0.652353 347.709589 -0.152097 348.289562 0.847296 L 364.126996 32.575474 L 379.533442 0.845818 C 380.108687 -0.15279 380.928878 -0.650108 381.995441 -0.654861 Z M 414.675452 41.533683 C 410.550826 41.535545 406.879656 40.626362 403.660516 38.814856 C 400.451525 36.996054 397.95453 34.465209 396.174608 31.218672 C 394.396112 27.963411 393.507757 24.276006 393.507322 20.142657 C 393.50546 16.018031 394.397197 12.344009 396.175236 9.110441 C 397.953276 5.876873 400.448433 3.351654 403.660708 1.534784 C 406.881706 -0.280661 410.549443 -1.185665 414.677717 -1.182452 C 418.762376 -1.18637 422.419749 -0.274964 425.638889 1.536541 C 428.858029 3.348046 431.360098 5.875243 433.150169 9.114483 C 434.946742 12.341352 435.845245 16.021461 435.843459 20.141012 C 435.843894 24.274361 434.949305 27.965829 433.149541 31.222714 C 431.365001 34.468653 428.864769 36.997521 425.666292 38.812169 C 422.459092 40.625391 418.800078 41.531822 414.675452 41.533683 Z M 414.675207 36.52266 C 417.698378 36.519846 420.413451 35.799427 422.825501 34.357753 C 425.246274 32.917505 427.138685 30.956501 428.488939 28.476964 C 429.845693 25.985055 430.51933 23.206818 430.523647 20.140032 C 430.521464 17.085617 429.845919 14.315188 428.491939 11.832391 C 427.13431 9.34452 425.264648 7.386436 422.864082 5.96401 C 420.46859 4.537935 417.741099 3.827813 414.677962 3.828571 C 411.619898 3.82568 408.892454 4.539599 406.488331 5.960178 C 404.087857 7.385833 402.217966 9.34604 400.861211 11.837949 C 399.519681 14.318912 398.843821 17.083351 398.840931 20.141414 C 398.841688 23.204552 399.515807 25.983705 400.859638 28.473798 C 402.213618 30.956595 404.100726 32.917531 406.515886 34.360256 C 408.936121 35.799332 411.657111 36.521825 414.675207 36.52266 Z M 447.322836 41.000387 C 446.53017 41.00066 445.870369 40.736057 445.343434 40.206578 C 444.809203 39.66695 444.549961 39.00659 444.551911 38.227721 L 444.548465 2.120314 C 444.547396 1.305126 444.811999 0.645326 445.343701 0.132189 C 445.868105 -0.391097 446.528465 -0.650339 447.321131 -0.650612 L 460.066284 -0.653713 C 462.447932 -0.649456 464.556385 -0.179361 466.407663 0.768147 C 468.260366 1.706932 469.706641 3.022602 470.760284 4.712933 C 471.810278 6.39819 472.335666 8.306668 472.331374 10.442016 C 472.332418 12.188642 471.857011 13.754377 470.913877 15.140648 C 469.975817 16.523271 468.683096 17.637441 467.048086 18.489658 C 469.467086 19.059782 471.366922 20.203309 472.749022 21.911515 C 474.136195 23.616072 474.830209 25.780501 474.83471 28.409876 C 474.833472 30.827843 474.254589 32.999115 473.103135 34.920046 C 471.948033 36.835903 470.328816 38.331069 468.246911 39.396821 C 466.168655 40.467648 463.819913 41.001664 461.18689 41.00109 Z M 460.069856 16.47109 C 462.161588 16.468251 463.831062 15.953048 465.092075 14.923256 C 466.363238 13.886168 466.992177 12.394792 466.997765 10.443258 C 466.994629 8.490298 466.359395 7.007192 465.097135 5.990293 C 463.834876 4.973393 462.162242 4.467075 460.066861 4.464839 L 450.093504 4.46881 L 450.09285 16.469986 Z M 461.186312 35.882539 C 463.671841 35.881388 465.671495 35.236564 467.204146 33.942194 C 468.738224 32.639101 469.505567 30.794193 469.506176 28.40747 C 469.508079 26.204561 468.749427 24.517676 467.230219 23.346816 C 465.716086 22.172307 463.702457 21.587851 461.185685 21.588371 L 450.093427 21.588538 L 450.094055 35.882706 Z M 485.879454 40.99881 C 485.086787 40.999082 484.426987 40.734479 483.900052 40.205 C 483.369469 39.670447 483.101504 39.008661 483.103454 38.229792 L 483.105083 2.118736 C 483.104014 1.303549 483.368617 0.643748 483.900318 0.130611 C 484.428371 -0.3876 485.085082 -0.651917 485.877749 -0.652189 C 486.692936 -0.653258 487.357811 -0.392303 487.872374 0.130675 C 488.388363 0.64493 488.647606 1.30529 488.648674 2.120477 L 488.65212 38.227884 C 488.65017 39.006753 488.39429 39.66798 487.872108 40.205064 C 487.360075 40.734851 486.694641 40.997741 485.879454 40.99881 Z M 502.022702 41.000454 C 501.243833 40.998504 500.592755 40.735327 500.083267 40.208701 C 499.571556 39.668277 499.312314 39.007917 499.314263 38.229048 L 499.319541 2.123066 C 499.317842 1.339123 499.581019 0.688045 500.10685 0.156036 C 500.637754 -0.379621 501.273371 -0.651865 502.020997 -0.650545 C 502.813663 -0.650817 503.477112 -0.38114 504.002621 0.157062 C 504.529555 0.686541 504.798946 1.339604 504.800645 2.123547 L 504.801313 35.454085 L 524.106504 35.453213 C 524.885373 35.455162 525.540099 35.723414 526.070682 36.257968 C 526.609988 36.793947 526.879379 37.44701 526.877429 38.225879 C 526.879128 39.009822 526.610876 39.664548 526.069822 40.207503 C 525.540343 40.734437 524.883632 40.998754 524.108411 41.001879 Z M 536.324644 41.001867 C 535.537052 40.998491 534.877252 40.733888 534.345243 40.208058 C 533.816086 39.664781 533.551769 39.00807 533.553719 38.229201 L 533.550273 2.121794 C 533.549204 1.306606 533.818882 0.643157 534.345509 0.133669 C 534.874988 -0.393266 535.535347 -0.652508 536.328014 -0.65278 L 560.424096 -0.649583 C 561.239284 -0.650652 561.898288 -0.408569 562.392386 0.0752386 C 562.89156 0.555398 563.146357 1.188162 563.144407 1.967031 C 563.148162 2.711008 562.89719 3.314822 562.391491 3.778473 C 561.895942 4.234827 561.239861 4.4679 560.424674 4.468969 L 539.100387 4.466642 L 539.099078 17.4305 L 554.395895 17.432584 C 555.179839 17.430885 555.825045 17.67519 556.338016 18.153127 C 556.856061 18.627415 557.118785 19.239085 557.117466 19.98671 C 557.12122 20.730687 556.858673 21.350521 556.336325 21.833841 C 555.824126 22.309863 555.180416 22.549437 554.396472 22.551135 L 539.099656 22.549052 L 539.100937 35.880537 L 560.425224 35.882864 C 561.240412 35.881796 561.897194 36.110081 562.390496 36.571368 C 562.892521 37.034081 563.147948 37.635602 563.146628 38.383227 C 563.144679 39.162096 562.893077 39.797154 562.388175 40.283325 C 561.898496 40.758551 561.240989 41.000347 560.425801 41.001416 Z M 602.027711 37.109181 C 602.203502 37.567818 602.283173 37.957003 602.284171 38.279588 C 602.287926 39.023565 602.017452 39.664494 601.481473 40.2038 C 600.946919 40.734383 600.293856 41.003774 599.514987 41.001824 C 598.982419 40.999839 598.474095 40.849562 597.991441 40.542271 C 597.512435 40.240054 597.168221 39.825532 596.963872 39.295055 L 593.967697 31.819393 L 574.823799 31.819766 L 571.78378 39.293758 C 571.535494 39.826362 571.180773 40.243046 570.710894 40.542386 C 570.253387 40.848226 569.753987 40.999441 569.230142 40.998882 C 568.446198 41.000581 567.796547 40.72868 567.277539 40.178107 C 566.763606 39.623885 566.506586 38.977323 566.507906 38.229698 C 566.50389 37.870794 566.593438 37.460016 566.766401 37.004659 L 581.753408 1.211973 C 582.2923 -0.0299169 583.163701 -0.648728 584.369035 -0.653183 C 585.649229 -0.649878 586.51938 -0.0284627 586.988212 1.21249 Z M 576.687763 27.238906 L 592.105906 27.238434 L 584.475782 8.253278 Z M 621.589989 41.534391 C 618.141778 41.534886 615.000657 40.752663 612.175348 39.189146 C 609.353687 37.630704 607.404556 35.5835 606.343974 33.059109 C 606.15883 32.63029 606.064731 32.274571 606.066751 31.988304 C 606.065088 31.450661 606.263425 30.977063 606.656686 30.571157 C 607.055022 30.161603 607.583111 29.889692 608.254748 29.753202 C 608.367981 29.717978 608.545924 29.69781 608.78715 29.701423 C 609.361111 29.696742 609.90655 29.86652 610.414743 30.209333 C 610.934512 30.536127 611.321712 30.989023 611.563971 31.561523 C 612.20617 32.947249 613.468928 34.125441 615.348597 35.091026 C 617.234767 36.044238 619.31055 36.522426 621.586096 36.518293 C 624.259086 36.520922 626.521857 35.910158 628.374408 34.686 C 630.219663 33.451694 631.143723 31.771228 631.141515 29.648252 C 631.142492 27.615359 630.356078 25.879154 628.787348 24.435991 C 627.222267 22.997901 624.849533 22.117396 621.655348 21.796697 C 617.243125 21.366424 613.775698 20.087522 611.247199 17.94112 C 608.723774 15.791069 607.462859 13.095105 607.45938 9.856877 C 607.46397 7.582757 608.107432 5.619078 609.402138 3.97234 C 610.703344 2.313231 612.481667 1.05007 614.737105 0.182855 C 616.99397 -0.693082 619.533358 -1.133236 622.341472 -1.135384 C 625.399535 -1.132493 627.971271 -0.510529 630.063977 0.740657 C 632.166832 1.984547 633.941467 3.756928 635.400254 6.064301 C 635.82666 6.743034 636.03499 7.386114 636.039042 7.991318 C 636.040741 8.775262 635.685259 9.415727 634.968948 9.907638 C 634.582484 10.1624 634.123681 10.284427 633.591113 10.282442 C 633.062193 10.285531 632.564814 10.150478 632.093902 9.880932 C 631.631712 9.612811 631.278941 9.250627 631.023217 8.787878 C 630.075213 7.190945 628.871923 5.977694 627.43222 5.142255 C 625.993944 4.298092 624.168276 3.878708 621.965367 3.876804 C 619.264781 3.878619 617.078759 4.403413 615.402225 5.454834 C 613.734414 6.50768 612.899937 8.023668 612.906091 10.012946 C 612.90382 11.862026 613.648971 13.412361 615.141547 14.663951 C 616.6319 15.901743 619.297236 16.718133 623.133906 17.108047 C 627.40371 17.532948 630.71714 18.822498 633.056751 20.973844 C 635.400011 23.130264 636.571972 25.959462 636.574857 29.475235 C 636.571895 32.040697 635.877556 34.233397 634.490415 36.062058 C 633.106922 37.895794 631.275167 39.266651 628.981355 40.17685 C 626.692616 41.083401 624.223013 41.534964 621.589989 41.534391 Z M 672.846998 -0.652262 C 673.518339 -0.64998 674.068388 -0.398842 674.514593 0.104004 C 674.962224 0.598128 675.190057 1.204093 675.190793 1.911752 C 675.191196 2.511882 675.010638 3.095861 674.656416 3.673839 L 660.308652 25.805383 L 660.310755 38.22795 C 660.308805 39.006819 660.039127 39.670268 659.4995 40.2045 C 658.973669 40.736509 658.316958 41.000826 657.533014 41.002524 C 656.785389 41.001204 656.148109 40.735805 655.607377 40.208548 C 655.07822 39.665272 654.813903 39.008561 654.812205 38.224617 L 654.81375 25.807125 L 640.583328 3.669538 C 640.18548 3.062645 639.983187 2.492202 639.983746 1.968356 C 639.985066 1.220731 640.256337 0.602323 640.804058 0.100762 C 641.360502 -0.399374 642.010712 -0.651319 642.758338 -0.649999 C 643.327224 -0.651032 643.794785 -0.525332 644.152299 -0.274325 C 644.506163 -0.0283925 644.863379 0.361387 645.218872 0.898662 L 657.690275 20.675313 L 670.385926 0.678401 C 670.95643 -0.20903 671.776787 -0.652584 672.846998 -0.652262 Z M 719.719003 -0.651229 C 720.502947 -0.652928 721.157673 -0.384676 721.68683 0.158601 C 722.227562 0.685857 722.491879 1.342568 722.493577 2.126512 L 722.493374 38.228845 C 722.491425 39.007714 722.218098 39.666088 721.659598 40.206191 C 721.116322 40.735347 720.468334 41.00109 719.720708 40.99977 C 718.941839 40.99782 718.282039 40.733217 717.741307 40.205961 C 717.215798 39.667759 716.947833 39.005973 716.949783 38.227104 L 716.949144 11.716704 L 704.028874 38.017869 C 703.43522 38.93734 702.634531 39.397544 701.635531 39.399908 C 700.462866 39.39627 699.612549 38.845269 699.084581 37.746904 L 686.338135 12.202286 L 686.337277 38.228808 C 686.335327 39.007677 686.070724 39.667478 685.531096 40.201709 C 685.000191 40.737367 684.34348 41.001684 683.564611 40.999734 C 682.771944 41.000006 682.112144 40.735403 681.585209 40.205924 C 681.059701 39.667722 680.791736 39.005937 680.793686 38.227068 L 680.79024 2.11966 C 680.79219 1.340791 681.055367 0.689714 681.586272 0.154056 C 682.117177 -0.381602 682.775314 -0.654641 683.562906 -0.651265 C 684.624394 -0.652369 685.438226 -0.152114 686.009476 0.845854 L 701.855634 32.575458 L 717.262079 0.845802 C 717.83225 -0.149158 718.653867 -0.655199 719.719003 -0.651229 Z M 752.404089 41.533667 C 748.279463 41.535528 744.608293 40.626345 741.389153 38.81484 C 738.175087 36.999686 735.678093 34.468841 733.898171 31.222304 C 732.119675 27.967043 731.232746 24.270915 731.235959 20.142641 C 731.234097 16.018015 732.125834 12.343993 733.898799 9.114073 C 735.681913 5.876857 738.17707 3.351638 741.389345 1.534767 C 744.605268 -0.277029 748.27808 -1.185682 752.402706 -1.187543 C 756.491013 -1.186386 760.144737 -0.280055 763.367526 1.536524 C 766.586667 3.34803 769.088735 5.875227 770.878807 9.114467 C 772.675379 12.341336 773.573883 16.021444 773.572096 20.140996 C 773.572532 24.274344 772.677942 27.965813 770.878178 31.222697 C 769.093638 34.468637 766.593407 36.997504 763.394929 38.812152 C 760.187729 40.625374 756.52364 41.535454 752.404089 41.533667 Z M 752.403844 36.522643 C 755.421941 36.523478 758.142089 35.79941 760.554138 34.357736 C 762.974911 32.917488 764.862248 30.960133 766.217576 28.476947 C 767.574331 25.985038 768.247967 23.206802 768.24721 20.143664 C 768.250101 17.085601 767.569482 14.31882 766.215501 11.836023 C 764.862947 9.344504 762.988211 7.390068 760.592719 5.963993 C 758.197227 4.537918 755.469737 3.827797 752.406599 3.828555 C 749.348536 3.825664 746.621091 4.539582 744.211894 5.963811 C 741.816494 7.385816 739.942954 9.340949 738.589849 11.837933 C 737.239595 14.31747 736.567384 17.086983 736.569568 20.141398 C 736.570325 23.204536 737.244444 25.983689 738.588275 28.473782 C 739.942255 30.956578 741.824288 32.921163 744.2358 34.358813 C 746.659683 35.802964 749.385748 36.521809 752.403844 36.522643 Z M 785.051473 41.000371 C 784.258807 41.000643 783.599006 40.73604 783.072072 40.206561 C 782.53784 39.666933 782.273524 39.010222 782.271825 38.226279 L 782.272028 2.123946 C 782.276034 1.30511 782.536988 0.640235 783.068689 0.127098 C 783.596742 -0.391114 784.257102 -0.650356 785.049768 -0.650628 L 797.794921 -0.653729 C 800.172921 -0.654547 802.285022 -0.179377 804.1363 0.768131 C 805.980281 1.70549 807.435278 3.022585 808.483846 4.716565 C 809.530192 6.396748 810.059229 8.3103 810.060011 10.441999 C 810.061055 12.188625 809.585648 13.754361 808.642514 15.140632 C 807.704454 16.523255 806.411734 17.637424 804.773075 18.484567 C 807.195723 19.059766 809.09556 20.203293 810.477659 21.911499 C 811.864833 23.616056 812.558846 25.780485 812.558273 28.413508 C 812.557034 30.831475 811.983226 32.999099 810.826698 34.923678 C 809.671596 36.839535 808.057454 38.331052 805.970474 39.400453 C 803.897292 40.467631 801.544902 40.996573 798.915527 41.001074 Z M 797.798493 16.471073 C 799.885151 16.471883 801.559699 15.953031 802.820713 14.92324 C 804.086801 13.8898 804.720814 12.394776 804.717679 10.441816 C 804.723266 8.490282 804.088032 7.007176 802.81705 5.98885 C 801.563513 4.973377 799.882156 4.465633 797.795498 4.464823 L 787.822141 4.468794 L 787.821488 16.46997 Z M 798.91495 35.882522 C 801.395403 35.88502 803.400132 35.236547 804.927709 33.945826 C 806.466861 32.639084 807.234205 30.794177 807.234813 28.407454 C 807.236717 26.204544 806.478065 24.51766 804.955208 23.341725 C 803.444723 22.172291 801.431094 21.587834 798.914322 21.588355 L 787.822065 21.588522 L 787.822692 35.882689 Z M 823.603017 41.002442 C 822.815425 40.999066 822.155624 40.734463 821.623615 40.208632 C 821.094458 39.665356 820.830141 39.008645 820.828443 38.224701 L 820.828645 2.122368 C 820.827577 1.307181 821.097254 0.643732 821.623881 0.134243 C 822.15336 -0.392691 822.81372 -0.651933 823.606386 -0.652206 C 824.421573 -0.653274 825.081374 -0.388671 825.592289 0.129232 C 826.117001 0.644914 826.376243 1.305273 826.377312 2.12046 L 826.380757 38.227868 C 826.378807 39.006737 826.114204 39.666538 825.595671 40.208696 C 825.083638 40.738483 824.418204 41.001373 823.603017 41.002442 Z M 839.751339 41.000438 C 838.967395 41.002136 838.321392 40.735311 837.808255 40.20361 C 837.300193 39.66826 837.040951 39.0079 837.042901 38.229031 L 837.039455 2.121624 C 837.041405 1.342755 837.306008 0.682954 837.835487 0.15602 C 838.366392 -0.379638 839.002008 -0.651881 839.749634 -0.650561 C 840.5423 -0.650834 841.197026 -0.382582 841.731258 0.157046 C 842.258192 0.686525 842.522509 1.343236 842.520559 2.122105 L 842.521227 35.452642 L 861.835141 35.453196 C 862.61401 35.455146 863.268736 35.723398 863.799319 36.257951 C 864.334976 36.788856 864.608016 37.446993 864.606066 38.225862 C 864.607765 39.009806 864.334439 39.66818 863.798459 40.207486 C 863.26898 40.734421 862.612269 40.998738 861.8334 40.996788 Z M 874.053282 41.001851 C 873.260615 41.002123 872.600814 40.73752 872.07388 40.208041 C 871.544723 39.664765 871.280406 39.008054 871.278708 38.22411 L 871.27891 2.121777 C 871.277842 1.30659 871.547519 0.643141 872.070498 0.128578 C 872.603625 -0.393282 873.263984 -0.652524 874.051576 -0.649148 L 898.152734 -0.649599 C 898.967921 -0.650668 899.621851 -0.404937 900.115949 0.0788706 C 900.620197 0.555381 900.871346 1.183071 900.873044 1.967015 C 900.871724 2.71464 900.620753 3.318454 900.11648 3.773382 C 899.624579 4.234811 898.968498 4.467884 898.149662 4.463878 L 876.829024 4.466626 L 876.822641 17.434132 L 892.124532 17.432567 C 892.903401 17.434517 893.550034 17.670099 894.063005 18.148036 C 894.584699 18.627399 894.847423 19.239069 894.846103 19.986694 C 894.844783 20.734319 894.583662 21.34543 894.064962 21.833824 C 893.552763 22.309847 892.903979 22.553069 892.12511 22.551119 L 876.823218 22.552684 L 876.8245 35.884169 L 898.153862 35.882848 C 898.969049 35.881779 899.620756 36.113713 900.119133 36.571351 C 900.621158 37.034064 900.876586 37.635585 900.875266 38.383211 C 900.873316 39.16208 900.621714 39.797137 900.116812 40.283309 C 899.622059 40.762184 898.969626 41.000331 898.154439 41.0014 Z M 874.053282 41.001851 " transform="matrix(0.507457,0.364845,-0.364845,0.507457,483.543672,-71.232299)"/><g style="fill:rgb(21.569824%,21.569824%,21.569824%);fill-opacity:0.4;"><g transform="translate(594.091586, -2.927698)"><path style="stroke:none;" d="M 4.078125 2.9375 C 3.679688 2.65625 3.445312 2.28125 3.375 1.8125 C 3.3125 1.351562 3.425781 0.925781 3.71875 0.53125 L 16.890625 -17.796875 C 17.171875 -18.191406 17.546875 -18.425781 18.015625 -18.5 C 18.484375 -18.570312 18.90625 -18.472656 19.28125 -18.203125 C 19.6875 -17.921875 19.925781 -17.546875 20 -17.078125 C 20.070312 -16.609375 19.96875 -16.175781 19.6875 -15.78125 L 7.53125 1.140625 L 17.3125 8.171875 C 17.71875 8.460938 17.953125 8.835938 18.015625 9.296875 C 18.085938 9.765625 17.984375 10.195312 17.703125 10.59375 C 17.410156 10.988281 17.035156 11.222656 16.578125 11.296875 C 16.117188 11.378906 15.6875 11.273438 15.28125 10.984375 Z M 4.078125 2.9375 "/></g></g><g style="fill:rgb(21.569824%,21.569824%,21.569824%);fill-opacity:0.4;"><g transform="translate(611.465194, 9.563371)"><path style="stroke:none;" d="M 4.109375 2.953125 C 3.710938 2.671875 3.472656 2.296875 3.390625 1.828125 C 3.316406 1.359375 3.425781 0.925781 3.71875 0.53125 L 16.890625 -17.796875 C 17.179688 -18.203125 17.554688 -18.4375 18.015625 -18.5 C 18.484375 -18.570312 18.914062 -18.46875 19.3125 -18.1875 L 31.546875 -9.390625 C 31.960938 -9.097656 32.207031 -8.738281 32.28125 -8.3125 C 32.351562 -7.882812 32.242188 -7.46875 31.953125 -7.0625 C 31.691406 -6.695312 31.347656 -6.484375 30.921875 -6.421875 C 30.503906 -6.367188 30.085938 -6.488281 29.671875 -6.78125 L 18.84375 -14.5625 L 14.109375 -8 L 21.875 -2.421875 C 22.269531 -2.128906 22.515625 -1.765625 22.609375 -1.328125 C 22.703125 -0.898438 22.609375 -0.492188 22.328125 -0.109375 C 22.066406 0.265625 21.710938 0.476562 21.265625 0.53125 C 20.828125 0.59375 20.410156 0.476562 20.015625 0.1875 L 12.25 -5.390625 L 7.390625 1.375 L 18.21875 9.15625 C 18.632812 9.445312 18.878906 9.800781 18.953125 10.21875 C 19.035156 10.632812 18.941406 11.03125 18.671875 11.40625 C 18.390625 11.800781 18.035156 12.03125 17.609375 12.09375 C 17.179688 12.15625 16.757812 12.039062 16.34375 11.75 Z M 4.109375 2.953125 "/></g></g><g style="fill:rgb(21.569824%,21.569824%,21.569824%);fill-opacity:0.4;"><g transform="translate(630.408376, 23.182913)"><path style="stroke:none;" d="M 19.9375 11.328125 C 19.863281 11.628906 19.769531 11.863281 19.65625 12.03125 C 19.375 12.40625 19 12.628906 18.53125 12.703125 C 18.070312 12.785156 17.640625 12.679688 17.234375 12.390625 C 16.960938 12.203125 16.757812 11.941406 16.625 11.609375 C 16.488281 11.285156 16.46875 10.945312 16.5625 10.59375 L 17.765625 5.71875 L 8.046875 -1.265625 L 3.796875 1.421875 C 3.472656 1.597656 3.132812 1.675781 2.78125 1.65625 C 2.4375 1.632812 2.128906 1.53125 1.859375 1.34375 C 1.460938 1.050781 1.234375 0.671875 1.171875 0.203125 C 1.117188 -0.265625 1.226562 -0.6875 1.5 -1.0625 C 1.625 -1.238281 1.816406 -1.410156 2.078125 -1.578125 L 22.734375 -14.28125 C 23.460938 -14.71875 24.132812 -14.710938 24.75 -14.265625 C 25.40625 -13.796875 25.617188 -13.164062 25.390625 -12.375 Z M 10.671875 -2.921875 L 18.484375 2.703125 L 21.5625 -9.71875 Z M 10.671875 -2.921875 "/></g></g><g style="fill:rgb(21.569824%,21.569824%,21.569824%);fill-opacity:0.4;"><g transform="translate(649.432754, 36.860832)"><path style="stroke:none;" d="M 9.21875 7.03125 C 7.46875 5.769531 6.160156 4.226562 5.296875 2.40625 C 4.429688 0.582031 4.191406 -1.160156 4.578125 -2.828125 C 4.640625 -3.097656 4.722656 -3.304688 4.828125 -3.453125 C 5.023438 -3.722656 5.296875 -3.890625 5.640625 -3.953125 C 5.992188 -4.023438 6.367188 -3.972656 6.765625 -3.796875 C 6.828125 -3.773438 6.921875 -3.722656 7.046875 -3.640625 C 7.328125 -3.429688 7.539062 -3.148438 7.6875 -2.796875 C 7.832031 -2.441406 7.863281 -2.070312 7.78125 -1.6875 C 7.601562 -0.738281 7.8125 0.320312 8.40625 1.5 C 9.007812 2.675781 9.882812 3.675781 11.03125 4.5 C 12.382812 5.476562 13.753906 5.988281 15.140625 6.03125 C 16.535156 6.082031 17.625 5.566406 18.40625 4.484375 C 19.144531 3.453125 19.378906 2.285156 19.109375 0.984375 C 18.835938 -0.316406 17.945312 -1.632812 16.4375 -2.96875 C 14.363281 -4.78125 13.078125 -6.691406 12.578125 -8.703125 C 12.085938 -10.722656 12.429688 -12.554688 13.609375 -14.203125 C 14.441406 -15.347656 15.488281 -16.101562 16.75 -16.46875 C 18.007812 -16.84375 19.367188 -16.832031 20.828125 -16.4375 C 22.296875 -16.050781 23.742188 -15.347656 25.171875 -14.328125 C 26.722656 -13.210938 27.800781 -11.957031 28.40625 -10.5625 C 29.019531 -9.164062 29.269531 -7.613281 29.15625 -5.90625 C 29.132812 -5.414062 29.015625 -5.015625 28.796875 -4.703125 C 28.503906 -4.304688 28.09375 -4.113281 27.5625 -4.125 C 27.257812 -4.144531 26.972656 -4.253906 26.703125 -4.453125 C 26.429688 -4.640625 26.226562 -4.882812 26.09375 -5.1875 C 25.96875 -5.488281 25.921875 -5.800781 25.953125 -6.125 C 26.046875 -7.289062 25.878906 -8.347656 25.453125 -9.296875 C 25.035156 -10.253906 24.269531 -11.132812 23.15625 -11.9375 C 21.78125 -12.925781 20.476562 -13.453125 19.25 -13.515625 C 18.019531 -13.585938 17.039062 -13.117188 16.3125 -12.109375 C 15.632812 -11.171875 15.445312 -10.113281 15.75 -8.9375 C 16.050781 -7.769531 17.109375 -6.390625 18.921875 -4.796875 C 20.929688 -3.015625 22.140625 -1.15625 22.546875 0.78125 C 22.953125 2.726562 22.515625 4.597656 21.234375 6.390625 C 20.296875 7.691406 19.140625 8.550781 17.765625 8.96875 C 16.390625 9.394531 14.957031 9.414062 13.46875 9.03125 C 11.976562 8.65625 10.5625 7.988281 9.21875 7.03125 Z M 9.21875 7.03125 "/></g></g><g style="fill:rgb(21.569824%,21.569824%,21.569824%);fill-opacity:0.4;"><g transform="translate(668.051202, 50.246901)"><path style="stroke:none;" d="M 32.015625 -9.0625 C 32.347656 -8.8125 32.53125 -8.476562 32.5625 -8.0625 C 32.601562 -7.644531 32.492188 -7.253906 32.234375 -6.890625 C 32.015625 -6.585938 31.71875 -6.359375 31.34375 -6.203125 L 15.984375 -0.21875 L 11.453125 6.09375 C 11.160156 6.488281 10.78125 6.722656 10.3125 6.796875 C 9.851562 6.878906 9.425781 6.78125 9.03125 6.5 C 8.65625 6.226562 8.425781 5.859375 8.34375 5.390625 C 8.269531 4.929688 8.378906 4.503906 8.671875 4.109375 L 13.203125 -2.203125 L 14.0625 -18.625 C 14.082031 -19.070312 14.1875 -19.429688 14.375 -19.703125 C 14.644531 -20.085938 15.015625 -20.304688 15.484375 -20.359375 C 15.953125 -20.410156 16.375 -20.300781 16.75 -20.03125 C 17.039062 -19.820312 17.226562 -19.585938 17.3125 -19.328125 C 17.394531 -19.066406 17.429688 -18.738281 17.421875 -18.34375 L 16.546875 -3.75 L 30.265625 -9.28125 C 30.890625 -9.519531 31.472656 -9.445312 32.015625 -9.0625 Z M 32.015625 -9.0625 "/></g></g><g style="fill:rgb(21.569824%,21.569824%,21.569824%);fill-opacity:0.4;"><g transform="translate(686.182543, 63.282755)"><path style="stroke:none;" d="M 37.65625 -5 C 38.050781 -4.707031 38.285156 -4.328125 38.359375 -3.859375 C 38.429688 -3.398438 38.328125 -2.972656 38.046875 -2.578125 L 24.875 15.75 C 24.582031 16.144531 24.203125 16.375 23.734375 16.4375 C 23.265625 16.507812 22.835938 16.410156 22.453125 16.140625 C 22.054688 15.859375 21.816406 15.484375 21.734375 15.015625 C 21.660156 14.546875 21.769531 14.113281 22.0625 13.71875 L 31.734375 0.265625 L 15.578125 8.90625 C 14.941406 9.15625 14.367188 9.097656 13.859375 8.734375 C 13.265625 8.304688 13.035156 7.71875 13.171875 6.96875 L 16.015625 -10.640625 L 6.53125 2.5625 C 6.238281 2.957031 5.859375 3.191406 5.390625 3.265625 C 4.929688 3.347656 4.503906 3.242188 4.109375 2.953125 C 3.710938 2.671875 3.472656 2.296875 3.390625 1.828125 C 3.316406 1.359375 3.425781 0.925781 3.71875 0.53125 L 16.890625 -17.796875 C 17.171875 -18.191406 17.546875 -18.425781 18.015625 -18.5 C 18.484375 -18.570312 18.914062 -18.46875 19.3125 -18.1875 C 19.851562 -17.800781 20.082031 -17.25 20 -16.53125 L 16.46875 5.34375 L 35.859375 -5.125 C 36.515625 -5.425781 37.113281 -5.382812 37.65625 -5 Z M 37.65625 -5 "/></g></g><g style="fill:rgb(21.569824%,21.569824%,21.569824%);fill-opacity:0.4;"><g transform="translate(712.757126, 82.389031)"><path style="stroke:none;" d="M 12.28125 9.234375 C 10.195312 7.734375 8.664062 5.9375 7.6875 3.84375 C 6.707031 1.75 6.363281 -0.445312 6.65625 -2.75 C 6.945312 -5.050781 7.84375 -7.242188 9.34375 -9.328125 C 10.84375 -11.421875 12.632812 -12.96875 14.71875 -13.96875 C 16.800781 -14.96875 18.988281 -15.335938 21.28125 -15.078125 C 23.582031 -14.816406 25.773438 -13.9375 27.859375 -12.4375 C 29.941406 -10.945312 31.46875 -9.15625 32.4375 -7.0625 C 33.40625 -4.96875 33.753906 -2.769531 33.484375 -0.46875 C 33.210938 1.820312 32.328125 4.015625 30.828125 6.109375 C 29.328125 8.191406 27.523438 9.734375 25.421875 10.734375 C 23.316406 11.742188 21.125 12.125 18.84375 11.875 C 16.5625 11.625 14.375 10.742188 12.28125 9.234375 Z M 14.09375 6.703125 C 15.632812 7.804688 17.28125 8.429688 19.03125 8.578125 C 20.78125 8.722656 22.453125 8.410156 24.046875 7.640625 C 25.648438 6.867188 27.007812 5.710938 28.125 4.171875 C 29.238281 2.617188 29.90625 0.96875 30.125 -0.78125 C 30.34375 -2.539062 30.101562 -4.21875 29.40625 -5.8125 C 28.71875 -7.414062 27.59375 -8.773438 26.03125 -9.890625 C 24.488281 -11.003906 22.847656 -11.632812 21.109375 -11.78125 C 19.367188 -11.9375 17.703125 -11.628906 16.109375 -10.859375 C 14.515625 -10.097656 13.160156 -8.941406 12.046875 -7.390625 C 10.929688 -5.847656 10.257812 -4.195312 10.03125 -2.4375 C 9.8125 -0.675781 10.050781 1.007812 10.75 2.625 C 11.445312 4.238281 12.5625 5.597656 14.09375 6.703125 Z M 14.09375 6.703125 "/></g></g><g style="fill:rgb(21.569824%,21.569824%,21.569824%);fill-opacity:0.4;"><g transform="translate(737.680955, 100.308468)"><path style="stroke:none;" d="M 4.109375 2.953125 C 3.710938 2.671875 3.472656 2.296875 3.390625 1.828125 C 3.316406 1.359375 3.425781 0.925781 3.71875 0.53125 L 16.890625 -17.796875 C 17.179688 -18.203125 17.554688 -18.4375 18.015625 -18.5 C 18.484375 -18.570312 18.914062 -18.46875 19.3125 -18.1875 L 25.78125 -13.53125 C 26.988281 -12.664062 27.890625 -11.65625 28.484375 -10.5 C 29.078125 -9.34375 29.332031 -8.144531 29.25 -6.90625 C 29.164062 -5.664062 28.734375 -4.503906 27.953125 -3.421875 C 27.328125 -2.546875 26.519531 -1.925781 25.53125 -1.5625 C 24.539062 -1.195312 23.472656 -1.097656 22.328125 -1.265625 C 23.347656 -0.0976562 23.898438 1.171875 23.984375 2.546875 C 24.066406 3.921875 23.628906 5.28125 22.671875 6.625 C 21.785156 7.84375 20.695312 8.726562 19.40625 9.28125 C 18.125 9.832031 16.757812 10 15.3125 9.78125 C 13.875 9.5625 12.488281 8.972656 11.15625 8.015625 Z M 19.53125 -4.828125 C 20.59375 -4.066406 21.628906 -3.71875 22.640625 -3.78125 C 23.660156 -3.84375 24.523438 -4.367188 25.234375 -5.359375 C 25.953125 -6.359375 26.175781 -7.34375 25.90625 -8.3125 C 25.632812 -9.289062 24.96875 -10.160156 23.90625 -10.921875 L 18.84375 -14.5625 L 14.46875 -8.46875 Z M 13.03125 5.421875 C 14.289062 6.328125 15.539062 6.726562 16.78125 6.625 C 18.03125 6.53125 19.09375 5.878906 19.96875 4.671875 C 20.769531 3.546875 21 2.410156 20.65625 1.265625 C 20.3125 0.117188 19.503906 -0.910156 18.234375 -1.828125 L 12.59375 -5.875 L 7.390625 1.375 Z M 13.03125 5.421875 "/></g></g><g style="fill:rgb(21.569824%,21.569824%,21.569824%);fill-opacity:1;"><g transform="translate(593.755442, -4.983737)"><path style="stroke:none;" d="M 4.078125 2.9375 C 3.679688 2.65625 3.445312 2.28125 3.375 1.8125 C 3.3125 1.351562 3.425781 0.925781 3.71875 0.53125 L 16.890625 -17.796875 C 17.171875 -18.191406 17.546875 -18.425781 18.015625 -18.5 C 18.484375 -18.570312 18.90625 -18.472656 19.28125 -18.203125 C 19.6875 -17.921875 19.925781 -17.546875 20 -17.078125 C 20.070312 -16.609375 19.96875 -16.175781 19.6875 -15.78125 L 7.53125 1.140625 L 17.3125 8.171875 C 17.71875 8.460938 17.953125 8.835938 18.015625 9.296875 C 18.085938 9.765625 17.984375 10.195312 17.703125 10.59375 C 17.410156 10.988281 17.035156 11.222656 16.578125 11.296875 C 16.117188 11.378906 15.6875 11.273438 15.28125 10.984375 Z M 4.078125 2.9375 "/></g></g><g style="fill:rgb(21.569824%,21.569824%,21.569824%);fill-opacity:1;"><g transform="translate(611.12905, 7.507332)"><path style="stroke:none;" d="M 4.109375 2.953125 C 3.710938 2.671875 3.472656 2.296875 3.390625 1.828125 C 3.316406 1.359375 3.425781 0.925781 3.71875 0.53125 L 16.890625 -17.796875 C 17.179688 -18.203125 17.554688 -18.4375 18.015625 -18.5 C 18.484375 -18.570312 18.914062 -18.46875 19.3125 -18.1875 L 31.546875 -9.390625 C 31.960938 -9.097656 32.207031 -8.738281 32.28125 -8.3125 C 32.351562 -7.882812 32.242188 -7.46875 31.953125 -7.0625 C 31.691406 -6.695312 31.347656 -6.484375 30.921875 -6.421875 C 30.503906 -6.367188 30.085938 -6.488281 29.671875 -6.78125 L 18.84375 -14.5625 L 14.109375 -8 L 21.875 -2.421875 C 22.269531 -2.128906 22.515625 -1.765625 22.609375 -1.328125 C 22.703125 -0.898438 22.609375 -0.492188 22.328125 -0.109375 C 22.066406 0.265625 21.710938 0.476562 21.265625 0.53125 C 20.828125 0.59375 20.410156 0.476562 20.015625 0.1875 L 12.25 -5.390625 L 7.390625 1.375 L 18.21875 9.15625 C 18.632812 9.445312 18.878906 9.800781 18.953125 10.21875 C 19.035156 10.632812 18.941406 11.03125 18.671875 11.40625 C 18.390625 11.800781 18.035156 12.03125 17.609375 12.09375 C 17.179688 12.15625 16.757812 12.039062 16.34375 11.75 Z M 4.109375 2.953125 "/></g></g><g style="fill:rgb(21.569824%,21.569824%,21.569824%);fill-opacity:1;"><g transform="translate(630.072232, 21.126874)"><path style="stroke:none;" d="M 19.9375 11.328125 C 19.863281 11.628906 19.769531 11.863281 19.65625 12.03125 C 19.375 12.40625 19 12.628906 18.53125 12.703125 C 18.070312 12.785156 17.640625 12.679688 17.234375 12.390625 C 16.960938 12.203125 16.757812 11.941406 16.625 11.609375 C 16.488281 11.285156 16.46875 10.945312 16.5625 10.59375 L 17.765625 5.71875 L 8.046875 -1.265625 L 3.796875 1.421875 C 3.472656 1.597656 3.132812 1.675781 2.78125 1.65625 C 2.4375 1.632812 2.128906 1.53125 1.859375 1.34375 C 1.460938 1.050781 1.234375 0.671875 1.171875 0.203125 C 1.117188 -0.265625 1.226562 -0.6875 1.5 -1.0625 C 1.625 -1.238281 1.816406 -1.410156 2.078125 -1.578125 L 22.734375 -14.28125 C 23.460938 -14.71875 24.132812 -14.710938 24.75 -14.265625 C 25.40625 -13.796875 25.617188 -13.164062 25.390625 -12.375 Z M 10.671875 -2.921875 L 18.484375 2.703125 L 21.5625 -9.71875 Z M 10.671875 -2.921875 "/></g></g><g style="fill:rgb(21.569824%,21.569824%,21.569824%);fill-opacity:1;"><g transform="translate(649.09661, 34.804793)"><path style="stroke:none;" d="M 9.21875 7.03125 C 7.46875 5.769531 6.160156 4.226562 5.296875 2.40625 C 4.429688 0.582031 4.191406 -1.160156 4.578125 -2.828125 C 4.640625 -3.097656 4.722656 -3.304688 4.828125 -3.453125 C 5.023438 -3.722656 5.296875 -3.890625 5.640625 -3.953125 C 5.992188 -4.023438 6.367188 -3.972656 6.765625 -3.796875 C 6.828125 -3.773438 6.921875 -3.722656 7.046875 -3.640625 C 7.328125 -3.429688 7.539062 -3.148438 7.6875 -2.796875 C 7.832031 -2.441406 7.863281 -2.070312 7.78125 -1.6875 C 7.601562 -0.738281 7.8125 0.320312 8.40625 1.5 C 9.007812 2.675781 9.882812 3.675781 11.03125 4.5 C 12.382812 5.476562 13.753906 5.988281 15.140625 6.03125 C 16.535156 6.082031 17.625 5.566406 18.40625 4.484375 C 19.144531 3.453125 19.378906 2.285156 19.109375 0.984375 C 18.835938 -0.316406 17.945312 -1.632812 16.4375 -2.96875 C 14.363281 -4.78125 13.078125 -6.691406 12.578125 -8.703125 C 12.085938 -10.722656 12.429688 -12.554688 13.609375 -14.203125 C 14.441406 -15.347656 15.488281 -16.101562 16.75 -16.46875 C 18.007812 -16.84375 19.367188 -16.832031 20.828125 -16.4375 C 22.296875 -16.050781 23.742188 -15.347656 25.171875 -14.328125 C 26.722656 -13.210938 27.800781 -11.957031 28.40625 -10.5625 C 29.019531 -9.164062 29.269531 -7.613281 29.15625 -5.90625 C 29.132812 -5.414062 29.015625 -5.015625 28.796875 -4.703125 C 28.503906 -4.304688 28.09375 -4.113281 27.5625 -4.125 C 27.257812 -4.144531 26.972656 -4.253906 26.703125 -4.453125 C 26.429688 -4.640625 26.226562 -4.882812 26.09375 -5.1875 C 25.96875 -5.488281 25.921875 -5.800781 25.953125 -6.125 C 26.046875 -7.289062 25.878906 -8.347656 25.453125 -9.296875 C 25.035156 -10.253906 24.269531 -11.132812 23.15625 -11.9375 C 21.78125 -12.925781 20.476562 -13.453125 19.25 -13.515625 C 18.019531 -13.585938 17.039062 -13.117188 16.3125 -12.109375 C 15.632812 -11.171875 15.445312 -10.113281 15.75 -8.9375 C 16.050781 -7.769531 17.109375 -6.390625 18.921875 -4.796875 C 20.929688 -3.015625 22.140625 -1.15625 22.546875 0.78125 C 22.953125 2.726562 22.515625 4.597656 21.234375 6.390625 C 20.296875 7.691406 19.140625 8.550781 17.765625 8.96875 C 16.390625 9.394531 14.957031 9.414062 13.46875 9.03125 C 11.976562 8.65625 10.5625 7.988281 9.21875 7.03125 Z M 9.21875 7.03125 "/></g></g><g style="fill:rgb(21.569824%,21.569824%,21.569824%);fill-opacity:1;"><g transform="translate(667.715058, 48.190862)"><path style="stroke:none;" d="M 32.015625 -9.0625 C 32.347656 -8.8125 32.53125 -8.476562 32.5625 -8.0625 C 32.601562 -7.644531 32.492188 -7.253906 32.234375 -6.890625 C 32.015625 -6.585938 31.71875 -6.359375 31.34375 -6.203125 L 15.984375 -0.21875 L 11.453125 6.09375 C 11.160156 6.488281 10.78125 6.722656 10.3125 6.796875 C 9.851562 6.878906 9.425781 6.78125 9.03125 6.5 C 8.65625 6.226562 8.425781 5.859375 8.34375 5.390625 C 8.269531 4.929688 8.378906 4.503906 8.671875 4.109375 L 13.203125 -2.203125 L 14.0625 -18.625 C 14.082031 -19.070312 14.1875 -19.429688 14.375 -19.703125 C 14.644531 -20.085938 15.015625 -20.304688 15.484375 -20.359375 C 15.953125 -20.410156 16.375 -20.300781 16.75 -20.03125 C 17.039062 -19.820312 17.226562 -19.585938 17.3125 -19.328125 C 17.394531 -19.066406 17.429688 -18.738281 17.421875 -18.34375 L 16.546875 -3.75 L 30.265625 -9.28125 C 30.890625 -9.519531 31.472656 -9.445312 32.015625 -9.0625 Z M 32.015625 -9.0625 "/></g></g><g style="fill:rgb(21.569824%,21.569824%,21.569824%);fill-opacity:1;"><g transform="translate(685.846399, 61.226716)"><path style="stroke:none;" d="M 37.65625 -5 C 38.050781 -4.707031 38.285156 -4.328125 38.359375 -3.859375 C 38.429688 -3.398438 38.328125 -2.972656 38.046875 -2.578125 L 24.875 15.75 C 24.582031 16.144531 24.203125 16.375 23.734375 16.4375 C 23.265625 16.507812 22.835938 16.410156 22.453125 16.140625 C 22.054688 15.859375 21.816406 15.484375 21.734375 15.015625 C 21.660156 14.546875 21.769531 14.113281 22.0625 13.71875 L 31.734375 0.265625 L 15.578125 8.90625 C 14.941406 9.15625 14.367188 9.097656 13.859375 8.734375 C 13.265625 8.304688 13.035156 7.71875 13.171875 6.96875 L 16.015625 -10.640625 L 6.53125 2.5625 C 6.238281 2.957031 5.859375 3.191406 5.390625 3.265625 C 4.929688 3.347656 4.503906 3.242188 4.109375 2.953125 C 3.710938 2.671875 3.472656 2.296875 3.390625 1.828125 C 3.316406 1.359375 3.425781 0.925781 3.71875 0.53125 L 16.890625 -17.796875 C 17.171875 -18.191406 17.546875 -18.425781 18.015625 -18.5 C 18.484375 -18.570312 18.914062 -18.46875 19.3125 -18.1875 C 19.851562 -17.800781 20.082031 -17.25 20 -16.53125 L 16.46875 5.34375 L 35.859375 -5.125 C 36.515625 -5.425781 37.113281 -5.382812 37.65625 -5 Z M 37.65625 -5 "/></g></g><g style="fill:rgb(21.569824%,21.569824%,21.569824%);fill-opacity:1;"><g transform="translate(712.420982, 80.332992)"><path style="stroke:none;" d="M 12.28125 9.234375 C 10.195312 7.734375 8.664062 5.9375 7.6875 3.84375 C 6.707031 1.75 6.363281 -0.445312 6.65625 -2.75 C 6.945312 -5.050781 7.84375 -7.242188 9.34375 -9.328125 C 10.84375 -11.421875 12.632812 -12.96875 14.71875 -13.96875 C 16.800781 -14.96875 18.988281 -15.335938 21.28125 -15.078125 C 23.582031 -14.816406 25.773438 -13.9375 27.859375 -12.4375 C 29.941406 -10.945312 31.46875 -9.15625 32.4375 -7.0625 C 33.40625 -4.96875 33.753906 -2.769531 33.484375 -0.46875 C 33.210938 1.820312 32.328125 4.015625 30.828125 6.109375 C 29.328125 8.191406 27.523438 9.734375 25.421875 10.734375 C 23.316406 11.742188 21.125 12.125 18.84375 11.875 C 16.5625 11.625 14.375 10.742188 12.28125 9.234375 Z M 14.09375 6.703125 C 15.632812 7.804688 17.28125 8.429688 19.03125 8.578125 C 20.78125 8.722656 22.453125 8.410156 24.046875 7.640625 C 25.648438 6.867188 27.007812 5.710938 28.125 4.171875 C 29.238281 2.617188 29.90625 0.96875 30.125 -0.78125 C 30.34375 -2.539062 30.101562 -4.21875 29.40625 -5.8125 C 28.71875 -7.414062 27.59375 -8.773438 26.03125 -9.890625 C 24.488281 -11.003906 22.847656 -11.632812 21.109375 -11.78125 C 19.367188 -11.9375 17.703125 -11.628906 16.109375 -10.859375 C 14.515625 -10.097656 13.160156 -8.941406 12.046875 -7.390625 C 10.929688 -5.847656 10.257812 -4.195312 10.03125 -2.4375 C 9.8125 -0.675781 10.050781 1.007812 10.75 2.625 C 11.445312 4.238281 12.5625 5.597656 14.09375 6.703125 Z M 14.09375 6.703125 "/></g></g><g style="fill:rgb(21.569824%,21.569824%,21.569824%);fill-opacity:1;"><g transform="translate(737.344812, 98.252429)"><path style="stroke:none;" d="M 4.109375 2.953125 C 3.710938 2.671875 3.472656 2.296875 3.390625 1.828125 C 3.316406 1.359375 3.425781 0.925781 3.71875 0.53125 L 16.890625 -17.796875 C 17.179688 -18.203125 17.554688 -18.4375 18.015625 -18.5 C 18.484375 -18.570312 18.914062 -18.46875 19.3125 -18.1875 L 25.78125 -13.53125 C 26.988281 -12.664062 27.890625 -11.65625 28.484375 -10.5 C 29.078125 -9.34375 29.332031 -8.144531 29.25 -6.90625 C 29.164062 -5.664062 28.734375 -4.503906 27.953125 -3.421875 C 27.328125 -2.546875 26.519531 -1.925781 25.53125 -1.5625 C 24.539062 -1.195312 23.472656 -1.097656 22.328125 -1.265625 C 23.347656 -0.0976562 23.898438 1.171875 23.984375 2.546875 C 24.066406 3.921875 23.628906 5.28125 22.671875 6.625 C 21.785156 7.84375 20.695312 8.726562 19.40625 9.28125 C 18.125 9.832031 16.757812 10 15.3125 9.78125 C 13.875 9.5625 12.488281 8.972656 11.15625 8.015625 Z M 19.53125 -4.828125 C 20.59375 -4.066406 21.628906 -3.71875 22.640625 -3.78125 C 23.660156 -3.84375 24.523438 -4.367188 25.234375 -5.359375 C 25.953125 -6.359375 26.175781 -7.34375 25.90625 -8.3125 C 25.632812 -9.289062 24.96875 -10.160156 23.90625 -10.921875 L 18.84375 -14.5625 L 14.46875 -8.46875 Z M 13.03125 5.421875 C 14.289062 6.328125 15.539062 6.726562 16.78125 6.625 C 18.03125 6.53125 19.09375 5.878906 19.96875 4.671875 C 20.769531 3.546875 21 2.410156 20.65625 1.265625 C 20.3125 0.117188 19.503906 -0.910156 18.234375 -1.828125 L 12.59375 -5.875 L 7.390625 1.375 Z M 13.03125 5.421875 "/></g></g><path style="fill:none;stroke-width:1.999999;stroke-linecap:butt;stroke-linejoin:miter;stroke:rgb(21.569824%,21.569824%,21.569824%);stroke-opacity:1;stroke-miterlimit:4;" d="M 44.267564 -0.652356 C 45.046433 -0.650406 45.701159 -0.382155 46.23539 0.157473 C 46.771048 0.688378 47.040439 1.341441 47.042138 2.125384 L 47.041935 38.227718 C 47.039985 39.006587 46.761585 39.668609 46.208159 40.205063 C 45.659808 40.737869 45.016894 40.999963 44.269269 40.998643 C 43.485326 41.000342 42.825525 40.735738 42.289867 40.204833 C 41.759284 39.67028 41.496394 39.004846 41.493269 38.229625 L 41.49263 11.719225 L 28.577435 38.016742 C 27.978706 38.939861 27.183092 39.396417 26.184091 39.398781 C 25.011426 39.395143 24.16111 38.844142 23.633142 37.745776 L 10.886696 12.201159 L 10.885838 38.227681 C 10.883888 39.00655 10.61421 39.669999 10.074582 40.204231 C 9.548752 40.73624 8.892041 41.000556 8.113172 40.998607 C 7.320505 40.998879 6.660705 40.734276 6.13377 40.204797 C 5.603187 39.670244 5.335222 39.008458 5.337172 38.229589 L 5.338801 2.118533 C 5.34075 1.339664 5.603927 0.688586 6.129758 0.156577 C 6.660663 -0.37908 7.3188 -0.65212 8.111467 -0.652393 C 9.16788 -0.649848 9.986787 -0.153241 10.558037 0.844726 L 26.404194 32.574331 L 41.805565 0.848323 C 42.38081 -0.150285 43.197353 -0.652678 44.267564 -0.652356 Z M 76.95265 41.532539 C 72.828024 41.534401 69.156854 40.625218 65.937714 38.813713 C 62.723648 36.998559 60.226654 34.467713 58.446732 31.221176 C 56.668235 27.965916 55.776232 24.273436 55.779445 20.145162 C 55.777583 16.020536 56.669321 12.346514 58.44736 9.112946 C 60.230474 5.87573 62.725631 3.35051 65.932831 1.537288 C 69.153829 -0.278156 72.826641 -1.186809 76.946192 -1.185022 C 81.039574 -1.187514 84.693298 -0.281183 87.911012 1.539046 C 91.130153 3.350551 93.637296 5.874099 95.427367 9.11334 C 97.22394 12.340208 98.122443 16.020317 98.120657 20.139868 C 98.121092 24.273217 97.221428 27.968334 95.426739 31.22157 C 93.637124 34.471158 91.141967 36.996377 87.938416 38.814674 C 84.73629 40.624247 81.072201 41.534326 76.95265 41.532539 Z M 76.952405 36.521516 C 79.970502 36.522351 82.685575 35.801931 85.097624 34.360257 C 87.523472 32.916361 89.410809 30.959006 90.766137 28.47582 C 92.117817 25.987559 92.796528 23.205675 92.795771 20.142537 C 92.793587 17.088122 92.118042 14.317692 90.764062 11.834896 C 89.411508 9.343377 87.536772 7.388941 85.14128 5.962866 C 82.740714 4.54044 80.013223 3.830318 76.950085 3.831076 C 73.892022 3.828185 71.164577 4.542104 68.760455 5.962683 C 66.365055 7.384689 64.486441 9.34347 63.138409 11.836805 C 61.788156 14.316343 61.115945 17.085856 61.118129 20.140271 C 61.118886 23.203409 61.793005 25.982561 63.136836 28.472655 C 64.490816 30.955451 66.372849 32.920036 68.784361 34.357686 C 71.208244 35.801837 73.929234 36.52433 76.952405 36.521516 Z M 109.59496 41.002892 C 108.807368 40.999516 108.147567 40.734913 107.615558 40.209083 C 107.086401 39.665806 106.822084 39.009095 106.820386 38.225151 L 106.820588 2.122818 C 106.81952 1.307631 107.085549 0.639107 107.612176 0.129619 C 108.145303 -0.392241 108.805663 -0.651483 109.593255 -0.648107 L 122.338407 -0.651208 C 124.716407 -0.652026 126.833583 -0.180505 128.684861 0.767004 C 130.528841 1.704363 131.983839 3.021458 133.032407 4.715438 C 134.078753 6.39562 134.607789 8.309173 134.608572 10.440872 C 134.609616 12.187498 134.134209 13.753233 133.186 15.143153 C 132.253015 16.522128 130.960294 17.636297 129.316561 18.487088 C 131.739209 19.062287 133.64412 20.202166 135.021145 21.91402 C 136.413393 23.614928 137.107407 25.779357 137.106834 28.412381 C 137.105595 30.830347 136.526712 33.00162 135.375258 34.922551 C 134.220156 36.838408 132.60094 38.333573 130.519035 39.399326 C 128.445852 40.466504 126.088388 40.999094 123.464088 40.999947 Z M 122.341979 16.473594 C 124.433711 16.470756 126.10826 15.951904 127.369273 14.922112 C 128.635362 13.888673 129.269375 12.393648 129.26624 10.440688 C 129.271827 8.489154 128.636593 7.006049 127.36561 5.987723 C 126.106999 4.975898 124.430717 4.464506 122.338984 4.467344 L 112.370702 4.467667 L 112.370048 16.468842 Z M 123.46351 35.881395 C 125.943964 35.883893 127.948693 35.23542 129.47627 33.944698 C 131.010348 32.641606 131.777691 30.796698 131.778299 28.409975 C 131.780203 26.207066 131.021551 24.520181 129.498694 23.344246 C 127.993284 22.171164 125.979655 21.586707 123.462883 21.587227 L 112.370625 21.587394 L 112.366178 35.88521 Z M 148.151577 41.001315 C 147.358911 41.001587 146.69911 40.736984 146.172176 40.207505 C 145.643019 39.664229 145.378702 39.007517 145.377003 38.223574 L 145.377206 2.121241 C 145.376137 1.306054 145.645815 0.642605 146.172442 0.133116 C 146.701921 -0.393818 147.36228 -0.65306 148.149872 -0.649685 C 148.965059 -0.650753 149.629935 -0.389799 150.140849 0.128105 C 150.665561 0.643786 150.924804 1.304146 150.925872 2.119333 L 150.924243 38.230389 C 150.922294 39.009258 150.662765 39.66541 150.144232 40.207569 C 149.632199 40.737355 148.966765 41.000246 148.151577 41.001315 Z M 164.2999 40.999311 C 163.515956 41.001009 162.869953 40.734184 162.356816 40.202482 C 161.848754 39.667133 161.589512 39.006773 161.591461 38.227904 L 161.588016 2.120497 C 161.589966 1.341628 161.854569 0.681827 162.384048 0.154892 C 162.914952 -0.380765 163.550569 -0.653009 164.298195 -0.651689 C 165.085787 -0.648313 165.745587 -0.38371 166.279819 0.155918 C 166.806753 0.685397 167.07107 1.342108 167.06912 2.120977 L 167.069788 35.451515 L 186.378627 35.455717 C 187.162571 35.454019 187.817297 35.72227 188.342805 36.260472 C 188.883537 36.787729 189.156577 37.445866 189.154627 38.224735 C 189.156326 39.008679 188.882999 39.667053 188.34702 40.206359 C 187.817541 40.733294 187.16083 40.99761 186.376886 40.999309 Z M 198.601842 41.000724 C 197.809176 41.000996 197.149375 40.736393 196.622441 40.206914 C 196.088209 39.667286 195.828967 39.006926 195.822194 38.226631 L 195.827471 2.12065 C 195.826402 1.305463 196.091006 0.645662 196.619058 0.127451 C 197.147111 -0.390761 197.807471 -0.650003 198.600137 -0.650276 L 222.701294 -0.650727 C 223.516482 -0.651795 224.170411 -0.406064 224.66451 0.0777433 C 225.168758 0.554254 225.419906 1.181944 225.421605 1.965888 C 225.420285 2.713513 225.169313 3.317327 224.665041 3.772255 C 224.168066 4.237332 223.517059 4.466757 222.698223 4.462751 L 201.37251 4.469147 L 201.371202 17.433005 L 216.673093 17.43144 C 217.451962 17.43339 218.098595 17.668971 218.611566 18.146908 C 219.133259 18.626271 219.390909 19.24159 219.394664 19.985567 C 219.393344 20.733192 219.135871 21.349377 218.613523 21.832697 C 218.096249 22.312368 217.452539 22.551941 216.67367 22.549992 L 201.371779 22.551557 L 201.373061 35.883042 L 222.697348 35.885369 C 223.512535 35.8843 224.169317 36.112585 224.662619 36.573872 C 225.169719 37.032937 225.420072 37.638106 225.418752 38.385732 C 225.421877 39.160952 225.170275 39.79601 224.665373 40.282181 C 224.17062 40.761056 223.518187 40.999204 222.702999 41.000273 Z M 264.296186 37.106611 C 264.471977 37.565248 264.560371 37.955859 264.561369 38.278445 C 264.560049 39.02607 264.289576 39.666998 263.753596 40.206304 C 263.224117 40.733239 262.567406 40.997556 261.783462 40.999254 C 261.259617 40.998695 260.751293 40.848418 260.263564 40.544776 C 259.784559 40.242559 259.445419 39.824388 259.232347 39.292485 L 256.239821 31.821898 L 237.100997 31.818622 L 234.055904 39.296263 C 233.812692 39.825218 233.457971 40.241903 232.983018 40.544891 C 232.52551 40.850731 232.031185 40.998297 231.502265 41.001387 C 230.723396 40.999437 230.073745 40.727537 229.549663 40.180612 C 229.035729 39.62639 228.780136 38.971105 228.781456 38.22348 C 228.781088 37.86965 228.865561 37.46252 229.043599 37.003516 L 244.030606 1.21083 C 244.564424 -0.0274121 245.440899 -0.649872 246.641159 -0.650679 C 247.917704 -0.652448 248.796578 -0.0296064 249.26541 1.211346 Z M 238.964961 27.237762 L 254.378029 27.240939 L 246.747906 8.255783 Z M 283.858464 41.531821 C 280.413902 41.537391 277.277855 40.751519 274.447471 39.191651 C 271.627237 37.624486 269.681754 35.582357 268.612449 33.05654 C 268.430953 32.632795 268.341929 32.273428 268.338875 31.990809 C 268.342286 31.449517 268.535548 30.979567 268.925161 30.568587 C 269.327146 30.164108 269.860309 29.888548 270.528298 29.746984 C 270.641531 29.711759 270.818047 29.700315 271.064348 29.70028 C 271.633235 29.699246 272.178673 29.869025 272.691941 30.20819 C 273.21171 30.534983 273.590187 30.986453 273.832446 31.558953 C 274.478293 32.949754 275.741052 34.127946 277.625795 35.089882 C 279.50689 36.046743 281.587748 36.521283 283.858219 36.520798 C 286.536284 36.519778 288.79398 35.912662 290.642883 34.68343 C 292.491786 33.454198 293.415847 31.773733 293.418713 29.647108 C 293.41969 27.614215 292.633276 25.87801 291.059472 24.438495 C 289.499465 22.996758 287.118008 22.114826 283.923823 21.794127 C 279.515248 21.368928 276.049248 20.081304 273.524397 17.939976 C 270.997323 15.784851 269.731334 13.092535 269.736578 9.855733 C 269.732445 7.580187 270.379555 5.621583 271.670613 3.969771 C 272.975468 2.315736 274.75379 1.052574 277.014303 0.181712 C 279.271168 -0.694225 281.805482 -1.130731 284.613596 -1.132879 C 287.671659 -1.129988 290.243395 -0.508024 292.3361 0.743162 C 294.435306 1.981977 296.21359 3.759433 297.672378 6.066806 C 298.098783 6.745539 298.312188 7.38497 298.311165 7.993823 C 298.312864 8.777767 297.953734 9.413157 297.246146 9.906495 C 296.850959 10.159831 296.395805 10.286932 295.863236 10.284947 C 295.334317 10.288036 294.836938 10.152983 294.366025 9.883436 C 293.90891 9.611667 293.552491 9.244408 293.300415 8.786734 C 292.347336 7.19345 291.149121 5.97655 289.704344 5.144759 C 288.266067 4.300597 286.440399 3.881212 284.23749 3.879309 C 281.536905 3.881124 279.350882 4.405918 277.674348 5.457338 C 276.011612 6.506536 275.177135 8.022524 275.174566 10.010376 C 275.175943 11.864531 275.926169 13.411217 277.415096 14.657732 C 278.909098 15.900599 281.574434 16.716989 285.411104 17.106903 C 289.680908 17.531804 292.989263 18.825003 295.328875 20.976349 C 297.677209 23.129121 298.844096 25.961967 298.84698 29.47774 C 298.849093 32.039553 298.154754 34.232253 296.762538 36.064563 C 295.38412 37.89465 293.547291 39.269155 291.253478 40.179355 C 288.96474 41.085906 286.500211 41.53382 283.858464 41.531821 Z M 335.119122 -0.649758 C 335.786814 -0.65255 336.345586 -0.399986 336.786717 0.106509 C 337.239422 0.596984 337.467255 1.202949 337.462916 1.914256 C 337.46332 2.514387 337.282762 3.098366 336.929966 3.66762 L 322.580776 25.807888 L 322.57923 38.22538 C 322.580929 39.009324 322.312677 39.66405 321.771623 40.207005 C 321.242144 40.733939 320.589081 41.00333 319.810212 41.00138 C 319.062587 41.000061 318.420232 40.73831 317.880926 40.20233 C 317.350343 39.667777 317.086027 39.011065 317.084328 38.227122 L 317.090948 25.805981 L 302.855452 3.672043 C 302.457604 3.06515 302.255311 2.494706 302.257296 1.962138 C 302.25719 1.223236 302.529886 0.596105 303.076181 0.103266 C 303.632625 -0.396869 304.282836 -0.648814 305.030461 -0.647494 C 305.604422 -0.652176 306.066909 -0.522828 306.424422 -0.27182 C 306.783361 -0.0295362 307.131854 0.358817 307.490995 0.901167 L 319.962399 20.677818 L 332.65805 0.680906 C 333.233628 -0.210174 334.048911 -0.65008 335.119122 -0.649758 Z M 381.996201 -0.652373 C 382.77507 -0.650423 383.429796 -0.382171 383.964028 0.157457 C 384.499685 0.688362 384.769077 1.341425 384.767127 2.120294 L 384.770572 38.227701 C 384.768623 39.00657 384.490222 39.668593 383.936796 40.205047 C 383.388445 40.737852 382.740457 41.003595 381.992832 41.002275 C 381.213963 41.000325 380.554162 40.735722 380.018505 40.204817 C 379.484273 39.665189 379.219957 39.008478 379.221906 38.229609 L 379.221267 11.719208 L 366.306072 38.016725 C 365.707344 38.939845 364.906655 39.400049 363.912729 39.398765 C 362.734989 39.398775 361.884673 38.847774 361.361779 37.74576 L 348.611685 12.196068 L 348.614475 38.227665 C 348.612525 39.006534 348.342848 39.669983 347.80322 40.204214 C 347.277389 40.736223 346.620678 41.00054 345.836734 41.002239 C 345.049142 40.998863 344.389342 40.73426 343.857333 40.208429 C 343.328176 39.665153 343.063859 39.008441 343.065809 38.229572 L 343.062363 2.122165 C 343.064313 1.343296 343.328916 0.683495 343.858395 0.156561 C 344.3893 -0.379097 345.047437 -0.652136 345.840104 -0.652409 C 346.896517 -0.649865 347.715424 -0.153257 348.286674 0.84471 L 364.132832 32.574314 L 379.534202 0.848307 C 380.109448 -0.150301 380.92599 -0.652695 381.996201 -0.652373 Z M 414.676212 41.536172 C 410.556661 41.534385 406.880417 40.62885 403.657628 38.81227 C 400.452285 36.998542 397.955291 34.467697 396.175369 31.22116 C 394.396872 27.9659 393.504869 24.273419 393.504434 20.140071 C 393.506221 16.020519 394.394309 12.341423 396.175997 9.112929 C 397.954036 5.879362 400.449194 3.354142 403.661468 1.537272 C 406.882466 -0.278172 410.555278 -1.186825 414.674829 -1.185039 C 418.763137 -1.183882 422.416861 -0.277551 425.63965 1.539029 C 428.85879 3.350535 431.365933 5.874083 433.15093 9.116972 C 434.947502 12.34384 435.847432 16.015226 435.849294 20.139852 C 435.84973 24.273201 434.950065 27.968317 433.155376 31.221554 C 431.362113 34.466067 428.86553 37.000009 425.667053 38.814657 C 422.459852 40.627879 418.800838 41.53431 414.676212 41.536172 Z M 414.675968 36.525148 C 417.699139 36.522335 420.414212 35.801915 422.826262 34.360241 C 425.247034 32.919993 427.139446 30.958989 428.491126 28.470729 C 429.842806 25.982468 430.525165 23.205658 430.524408 20.14252 C 430.522224 17.088106 429.84668 14.317676 428.492699 11.83488 C 427.135071 9.347009 425.261761 7.38385 422.864843 5.966498 C 420.469351 4.540423 417.74186 3.830302 414.675074 3.825985 C 411.620659 3.828168 408.889566 4.537013 406.489092 5.962667 C 404.088618 7.388321 402.215078 9.343454 400.863398 11.831714 C 399.516793 14.316326 398.844582 17.08584 398.841691 20.143903 C 398.842449 23.207041 399.516567 25.986193 400.860398 28.476287 C 402.214379 30.959083 404.101486 32.920019 406.512998 34.357669 C 408.936881 35.80182 411.654223 36.519239 414.675968 36.525148 Z M 447.319948 40.997801 C 446.53093 41.003148 445.87113 40.738545 445.340547 40.203992 C 444.815038 39.66579 444.550722 39.009078 444.549023 38.225135 L 444.549226 2.122802 C 444.548157 1.307615 444.814186 0.639091 445.340813 0.129603 C 445.87394 -0.392257 446.5343 -0.651499 447.321892 -0.648124 L 460.067045 -0.651224 C 462.445044 -0.652042 464.557146 -0.176873 466.408423 0.770636 C 468.257479 1.704346 469.703753 3.020016 470.757396 4.710347 C 471.80739 6.395604 472.332778 8.304082 472.332134 10.444504 C 472.32953 12.186055 471.862846 13.753217 470.914637 15.143137 C 469.976578 16.52576 468.688932 17.636281 467.045198 18.487071 C 469.467847 19.062271 471.367683 20.205798 472.749782 21.914003 C 474.142031 23.614912 474.836044 25.779341 474.831822 28.40729 C 474.834232 30.830331 474.255349 33.001604 473.100247 34.91746 C 471.948794 36.838391 470.325929 38.328482 468.247672 39.399309 C 466.169415 40.470136 463.817025 40.999077 461.18765 41.003579 Z M 460.066968 16.468503 C 462.162349 16.47074 463.836897 15.951888 465.094262 14.917022 C 466.363999 13.888656 466.992938 12.39728 466.994877 10.440672 C 466.991741 8.487712 466.361581 7.000958 465.094248 5.987707 C 463.835637 4.975881 462.159354 4.464489 460.067622 4.467327 L 450.095691 4.462576 L 450.093611 16.472474 Z M 461.187073 35.885027 C 463.672601 35.883877 465.67733 35.235404 467.204907 33.944682 C 468.738985 32.641589 469.506328 30.796681 469.506936 28.409958 C 469.50884 26.207049 468.746539 24.51509 467.227331 23.34423 C 465.716846 22.174796 463.703218 21.590339 461.186446 21.590859 L 450.094188 21.591026 L 450.094815 35.885194 Z M 485.880215 41.001298 C 485.087548 41.001571 484.427747 40.736968 483.900813 40.207489 C 483.366581 39.667861 483.107339 39.007501 483.105641 38.223557 L 483.105843 2.121224 C 483.104775 1.306037 483.365729 0.641162 483.897431 0.128025 C 484.425483 -0.390186 485.085843 -0.649428 485.87851 -0.649701 C 486.693697 -0.65077 487.358572 -0.389815 487.869487 0.128089 C 488.39055 0.638695 488.648366 1.307778 488.649435 2.122965 L 488.649232 38.225298 C 488.650931 39.009242 488.391402 39.665394 487.86922 40.202478 C 487.357188 40.732264 486.695402 41.000229 485.880215 41.001298 Z M 502.023462 41.002943 C 501.244593 41.000993 500.59859 40.734167 500.085453 40.202466 C 499.572316 39.670765 499.318149 39.006757 499.31645 38.222813 L 499.316653 2.12048 C 499.318603 1.341611 499.578131 0.685459 500.112685 0.154876 C 500.639941 -0.385856 501.279206 -0.653025 502.026832 -0.651705 C 502.814424 -0.648329 503.474224 -0.383726 504.003381 0.15955 C 504.53539 0.685381 504.799707 1.342092 504.797757 2.120961 L 504.798425 35.451498 L 524.107264 35.455701 C 524.891208 35.454002 525.545934 35.722254 526.071442 36.260456 C 526.612174 36.787712 526.876491 37.444424 526.87819 38.228367 C 526.87624 39.007236 526.611637 39.667037 526.075657 40.206343 C 525.541104 40.736926 524.884393 41.001242 524.105524 40.999293 Z M 536.321757 40.999281 C 535.537813 41.00098 534.878012 40.736377 534.347429 40.201823 C 533.816846 39.66727 533.55253 39.010559 533.550831 38.226615 L 533.551034 2.124282 C 533.55504 1.305446 533.815994 0.640571 534.347696 0.127434 C 534.875748 -0.390777 535.536108 -0.650019 536.328774 -0.650292 L 560.424857 -0.647095 C 561.240044 -0.648163 561.899049 -0.406081 562.393147 0.0777269 C 562.897395 0.554238 563.148544 1.181928 563.150242 1.965871 C 563.148922 2.713496 562.897951 3.31731 562.388604 3.775887 C 561.896703 4.237316 561.245696 4.46674 560.42686 4.462734 L 539.097499 4.464056 L 539.099839 17.432989 L 554.396656 17.435072 C 555.180599 17.433373 555.822158 17.672603 556.335128 18.15054 C 556.856822 18.629903 557.119546 19.241573 557.118226 19.989199 C 557.121981 20.733176 556.855785 21.347935 556.337085 21.836329 C 555.824886 22.312351 555.181177 22.551925 554.397233 22.553624 L 539.100416 22.55154 L 539.101698 35.883026 L 560.425985 35.885353 C 561.241172 35.884284 561.897954 36.112569 562.391256 36.573856 C 562.898356 37.032921 563.148709 37.63809 563.147389 38.385715 C 563.145439 39.164584 562.893837 39.799642 562.39401 40.282165 C 561.899257 40.76104 561.241749 41.002836 560.422914 40.99883 Z M 602.024823 37.106595 C 602.200614 37.565231 602.283934 37.959491 602.284932 38.282077 C 602.288687 39.026054 602.018213 39.666982 601.482233 40.206288 C 600.94768 40.736871 600.296043 40.997539 599.5121 40.999238 C 598.98318 41.002327 598.474856 40.85205 597.992201 40.544759 C 597.513196 40.242543 597.168981 39.82802 596.960984 39.292469 L 593.968458 31.821881 L 574.82456 31.822254 L 571.780893 39.291172 C 571.537681 39.820127 571.177886 40.24046 570.711655 40.544874 C 570.254147 40.850715 569.759822 40.998281 569.230903 41.00137 C 568.446959 41.003069 567.793659 40.726094 567.2783 40.180595 C 566.764367 39.626374 566.508773 38.971089 566.505018 38.227112 C 566.509725 37.869634 566.594198 37.462504 566.763514 37.002073 L 581.750521 1.209387 C 582.289413 -0.0325031 583.160813 -0.651314 584.369796 -0.650695 C 585.646341 -0.652465 586.516492 -0.031049 586.985324 1.209903 Z M 576.688523 27.241395 L 592.103018 27.235848 L 584.476543 8.255767 Z M 621.587101 41.531804 C 618.13889 41.5323 615.001417 40.755151 612.176109 39.191635 C 609.3508 37.628118 607.410391 35.58234 606.341086 33.056523 C 606.159591 32.632779 606.065491 32.27706 606.067512 31.990792 C 606.065849 31.453149 606.264185 30.979551 606.653799 30.568571 C 607.055783 30.164091 607.588946 29.888532 608.251861 29.750616 C 608.365094 29.715391 608.546685 29.700299 608.789337 29.695189 C 609.361872 29.69923 609.907311 29.869009 610.41693 30.203099 C 610.935272 30.538615 611.318824 30.986437 611.561083 31.558937 C 612.206931 32.949737 613.46604 34.122855 615.350784 35.084791 C 617.231879 36.041652 619.316385 36.521266 621.586857 36.520781 C 624.259847 36.52341 626.518969 35.907571 628.371521 34.683414 C 630.220424 33.454182 631.144484 31.773716 631.14735 29.647092 C 631.143252 27.617847 630.356839 25.881643 628.788109 24.438479 C 627.223028 23.00039 624.846645 22.11481 621.652461 21.794111 C 617.243885 21.368912 613.77281 20.084936 611.247959 17.943608 C 608.720886 15.788483 607.459971 13.092519 607.460141 9.859365 C 607.461082 7.580171 608.108193 5.621567 609.39925 3.969754 C 610.700456 2.310645 612.482427 1.052558 614.737866 0.185344 C 616.994731 -0.690593 619.53047 -1.135822 622.342233 -1.132895 C 625.396648 -1.135079 627.972032 -0.50804 630.064737 0.743146 C 632.163944 1.981961 633.942228 3.759416 635.401015 6.066789 C 635.827421 6.745522 636.040825 7.384954 636.039803 7.993807 C 636.037853 8.772676 635.682371 9.413141 634.969709 9.910127 C 634.579596 10.159814 634.124442 10.286916 633.591874 10.28493 C 633.062954 10.28802 632.565575 10.152967 632.094663 9.88342 C 631.632473 9.615299 631.276053 9.24804 631.029052 8.786718 C 630.072325 7.188359 628.877759 5.976534 627.432981 5.144743 C 625.994704 4.300581 624.169037 3.881196 621.966127 3.879292 C 619.265542 3.881108 617.07952 4.405902 615.402986 5.457322 C 613.736601 6.501445 612.900698 8.026156 612.903204 10.01036 C 612.900932 11.85944 613.646084 13.409775 615.143734 14.657716 C 616.637735 15.900583 619.303071 16.716973 623.134667 17.110535 C 627.40447 17.535436 630.714252 18.819912 633.057512 20.976332 C 635.402198 23.12403 636.572733 25.961951 636.575617 29.477723 C 636.574082 32.034462 635.878317 34.235885 634.491175 36.064546 C 633.107682 37.898283 631.275928 39.269139 628.982115 40.179338 C 626.689729 41.080815 624.228848 41.533804 621.587101 41.531804 Z M 672.847759 -0.649774 C 673.515451 -0.652566 674.069149 -0.396353 674.511706 0.101418 C 674.962985 0.600616 675.187169 1.201507 675.191553 1.91424 C 675.191957 2.51437 675.011399 3.098349 674.653528 3.671252 L 660.309413 25.807872 L 660.307867 38.225364 C 660.309566 39.009308 660.03624 39.667682 659.50026 40.206988 C 658.970781 40.733923 658.31407 40.998239 657.535201 40.99629 C 656.791224 41.000044 656.145221 40.733219 655.604489 40.205962 C 655.078981 39.66776 654.811016 39.005975 654.812965 38.227106 L 654.810863 25.804538 L 640.584089 3.672026 C 640.186241 3.065134 639.983948 2.49469 639.980859 1.96577 C 639.982179 1.218145 640.258523 0.596089 640.804818 0.10325 C 641.361263 -0.396886 642.011473 -0.648831 642.75545 -0.652585 C 643.327985 -0.648544 643.795546 -0.522844 644.149411 -0.276911 C 644.503276 -0.0309787 644.860492 0.358801 645.215984 0.896076 L 657.691036 20.677801 L 670.383039 0.675815 C 670.957191 -0.206542 671.777548 -0.650096 672.847759 -0.649774 Z M 719.719764 -0.648741 C 720.503708 -0.650439 721.158434 -0.382188 721.683942 0.156014 C 722.224674 0.683271 722.497714 1.341408 722.495764 2.120277 L 722.490487 38.226259 C 722.492185 39.010202 722.218859 39.668577 721.660359 40.208679 C 721.113434 40.732761 720.465446 40.998504 719.721469 41.002259 C 718.9426 41.000309 718.282799 40.735706 717.742067 40.208449 C 717.21291 39.665173 716.948594 39.008461 716.946895 38.224518 L 716.949905 11.719192 L 704.029635 38.020358 C 703.435981 38.939828 702.635292 39.400033 701.632643 39.397322 C 700.463626 39.398759 699.61331 38.847757 699.081694 37.744317 L 686.335247 12.1997 L 686.334389 38.226222 C 686.336088 39.010166 686.067836 39.664892 685.531857 40.204198 C 684.997303 40.734781 684.349315 41.000524 683.565372 41.002222 C 682.772705 41.002495 682.117979 40.734243 681.58597 40.208413 C 681.056813 39.665136 680.792496 39.008425 680.790798 38.224481 L 680.791001 2.122148 C 680.79295 1.343279 681.057553 0.683479 681.587032 0.156544 C 682.114289 -0.384188 682.776075 -0.652153 683.563667 -0.648777 C 684.625155 -0.649881 685.438987 -0.149625 686.010237 0.848342 L 701.856394 32.577946 L 717.259191 0.843216 C 717.834437 -0.155392 718.654628 -0.652711 719.719764 -0.648741 Z M 752.40485 41.536155 C 748.276575 41.532942 744.609054 40.628833 741.386265 38.812254 C 738.175848 37.002174 735.683928 34.467681 733.904006 31.221143 C 732.120435 27.969532 731.233507 24.273403 731.233071 20.140054 C 731.234858 16.020503 732.122947 12.341406 733.89956 9.116561 C 735.679025 5.874271 738.174182 3.349051 741.390106 1.537256 C 744.611104 -0.278189 748.278841 -1.183193 752.403467 -1.185055 C 756.491774 -1.183898 760.145498 -0.277567 763.364638 1.533938 C 766.587427 3.350518 769.089496 5.877715 770.875919 9.111881 C 772.67614 12.343824 773.570995 16.018858 773.572857 20.143484 C 773.573292 24.276833 772.675054 27.963226 770.878939 31.225186 C 769.090751 34.46605 766.594167 36.999993 763.392042 38.809566 C 760.18849 40.627863 756.529475 41.534293 752.40485 41.536155 Z M 752.400957 36.520057 C 755.424128 36.517244 758.142849 35.801899 760.554899 34.360225 C 762.975671 32.919977 764.864435 30.953898 766.214689 28.474361 C 767.571443 25.982452 768.248728 23.20929 768.244322 20.141078 C 768.250862 17.088089 767.570242 14.321308 766.216262 11.838512 C 764.863708 9.346992 762.985323 7.387482 760.589831 5.961407 C 758.197988 4.540407 755.466849 3.825211 752.403711 3.825968 C 749.349296 3.828152 746.618203 4.536996 744.212655 5.966299 C 741.817255 7.388305 739.943715 9.343438 738.586961 11.835346 C 737.24543 14.31631 736.573219 17.085823 736.570328 20.143886 C 736.571086 23.207024 737.241556 25.981102 738.589036 28.47627 C 739.943016 30.959066 741.826475 32.914928 744.236561 34.361301 C 746.66187 35.796729 749.38286 36.519222 752.400957 36.520057 Z M 785.048586 40.997785 C 784.255919 40.998057 783.596118 40.733454 783.069184 40.203975 C 782.538601 39.669422 782.270636 39.007636 782.272586 38.228767 L 782.277863 2.122785 C 782.276794 1.307598 782.537749 0.642723 783.06945 0.129586 C 783.597503 -0.388625 784.257862 -0.647867 785.046881 -0.653215 L 797.795682 -0.651241 C 800.173682 -0.652058 802.285783 -0.176889 804.133412 0.765545 C 805.986116 1.70433 807.43239 3.019999 808.480958 4.713979 C 809.536027 6.395588 810.056341 8.307714 810.060772 10.444488 C 810.058167 12.186039 809.586409 13.756849 808.643275 15.14312 C 807.701567 16.520669 806.412494 17.639913 804.773836 18.487055 C 807.196484 19.062254 809.09632 20.205781 810.47842 21.913987 C 811.861945 23.61347 812.559607 25.782973 812.56046 28.407274 C 812.557795 30.833963 811.983986 33.001587 810.828884 34.917444 C 809.672356 36.842023 808.054566 38.328466 805.967586 39.397867 C 803.894404 40.465045 801.545663 40.999061 798.912639 40.998488 Z M 797.795605 16.468487 C 799.882263 16.469297 801.56046 15.95552 802.817825 14.920654 C 804.083913 13.887214 804.721575 12.397264 804.723514 10.440655 C 804.720379 8.487695 804.085144 7.00459 802.81781 5.991339 C 801.560626 4.97079 799.887991 4.464473 797.796259 4.467311 L 787.819254 4.466208 L 787.822248 16.472458 Z M 798.91571 35.885011 C 801.392516 35.882434 803.400893 35.239036 804.929896 33.939591 C 806.467622 32.641573 807.234965 30.796665 807.235574 28.409942 C 807.233829 26.201958 806.475177 24.515073 804.955969 23.344213 C 803.445484 22.174779 801.431855 21.590323 798.911435 21.585768 L 787.819177 21.585935 L 787.819804 35.880103 Z M 823.600129 40.999856 C 822.816185 41.001554 822.156385 40.736951 821.625802 40.202398 C 821.095219 39.667844 820.830902 39.011133 820.829203 38.22719 L 820.829406 2.124856 C 820.833412 1.306021 821.094367 0.641146 821.626068 0.128009 C 822.154121 -0.390203 822.81448 -0.649445 823.607147 -0.649717 C 824.422334 -0.650786 825.087209 -0.389831 825.598124 0.128072 C 826.114113 0.642327 826.377003 1.307762 826.378072 2.122949 L 826.377869 38.225282 C 826.379568 39.009225 826.114965 39.669026 825.592783 40.20611 C 825.08075 40.735896 824.418964 41.003861 823.600129 40.999856 Z M 839.748451 40.997852 C 838.97323 41.000976 838.322153 40.737799 837.809016 40.206098 C 837.297305 39.665674 837.041712 39.010389 837.040013 38.226445 L 837.040216 2.124112 C 837.038517 1.340169 837.306769 0.685443 837.836247 0.158508 C 838.363504 -0.382224 839.002769 -0.649393 839.750394 -0.648073 C 840.539413 -0.65342 841.197787 -0.380094 841.72837 0.15446 C 842.258953 0.689013 842.519621 1.34065 842.526394 2.120945 L 842.521987 35.45513 L 861.832253 35.45061 C 862.611122 35.45256 863.269496 35.725886 863.800079 36.260439 C 864.335737 36.791344 864.605128 37.444407 864.606827 38.228351 C 864.604877 39.00722 864.335199 39.670669 863.795571 40.2049 C 863.269741 40.736909 862.61303 41.001226 861.834161 40.999276 Z M 874.050394 40.999265 C 873.262802 40.995889 872.603001 40.731286 872.070992 40.205455 C 871.545484 39.667253 871.277519 39.005468 871.279468 38.226599 L 871.279671 2.124266 C 871.278602 1.309078 871.544632 0.640555 872.071258 0.131066 C 872.604385 -0.390794 873.264745 -0.650036 874.048689 -0.651734 L 898.149846 -0.652186 C 898.968682 -0.64818 899.624037 -0.411172 900.121784 0.0777105 C 900.620957 0.55787 900.872106 1.18556 900.873805 1.969503 C 900.873911 2.708406 900.622939 3.312219 900.117241 3.775871 C 899.62534 4.237299 898.96561 4.465298 898.150423 4.466366 L 876.826136 4.464039 L 876.828476 17.432972 L 892.125293 17.435055 C 892.904162 17.437005 893.550795 17.672587 894.063766 18.150524 C 894.585459 18.629887 894.844535 19.236482 894.843215 19.984108 C 894.841895 20.731733 894.584423 21.347919 894.065723 21.836313 C 893.553524 22.312335 892.906165 22.546834 892.122222 22.548533 L 876.829053 22.551524 L 876.825261 35.886658 L 898.150974 35.880262 C 898.969809 35.884268 899.626591 36.112552 900.119894 36.57384 C 900.621919 37.036553 900.873698 37.632999 900.872378 38.380624 C 900.874077 39.164568 900.622475 39.799625 900.117573 40.285797 C 899.622819 40.764672 898.966738 40.997745 898.151551 40.998814 Z M 874.050394 40.999265 " transform="matrix(0.507457,0.364845,-0.364845,0.507457,568.001225,-93.245558)"/><g style="fill:rgb(21.569824%,21.569824%,21.569824%);fill-opacity:0.4;"><g transform="translate(686.487915, -8.871922)"><path style="stroke:none;" d="M 4.109375 2.953125 C 3.710938 2.671875 3.472656 2.296875 3.390625 1.828125 C 3.316406 1.359375 3.425781 0.925781 3.71875 0.53125 L 16.890625 -17.796875 C 17.179688 -18.203125 17.554688 -18.4375 18.015625 -18.5 C 18.484375 -18.570312 18.914062 -18.46875 19.3125 -18.1875 L 31.546875 -9.390625 C 31.960938 -9.097656 32.207031 -8.738281 32.28125 -8.3125 C 32.351562 -7.882812 32.242188 -7.46875 31.953125 -7.0625 C 31.691406 -6.695312 31.347656 -6.484375 30.921875 -6.421875 C 30.503906 -6.367188 30.085938 -6.488281 29.671875 -6.78125 L 18.84375 -14.5625 L 14.109375 -8 L 21.875 -2.421875 C 22.269531 -2.128906 22.515625 -1.765625 22.609375 -1.328125 C 22.703125 -0.898438 22.609375 -0.492188 22.328125 -0.109375 C 22.066406 0.265625 21.710938 0.476562 21.265625 0.53125 C 20.828125 0.59375 20.410156 0.476562 20.015625 0.1875 L 12.25 -5.390625 L 7.390625 1.375 L 18.21875 9.15625 C 18.632812 9.445312 18.878906 9.800781 18.953125 10.21875 C 19.035156 10.632812 18.941406 11.03125 18.671875 11.40625 C 18.390625 11.800781 18.035156 12.03125 17.609375 12.09375 C 17.179688 12.15625 16.757812 12.039062 16.34375 11.75 Z M 4.109375 2.953125 "/></g></g><g style="fill:rgb(21.569824%,21.569824%,21.569824%);fill-opacity:0.4;"><g transform="translate(705.431097, 4.747621)"><path style="stroke:none;" d="M 19.9375 11.328125 C 19.863281 11.628906 19.769531 11.863281 19.65625 12.03125 C 19.375 12.40625 19 12.628906 18.53125 12.703125 C 18.070312 12.785156 17.640625 12.679688 17.234375 12.390625 C 16.960938 12.203125 16.757812 11.941406 16.625 11.609375 C 16.488281 11.285156 16.46875 10.945312 16.5625 10.59375 L 17.765625 5.71875 L 8.046875 -1.265625 L 3.796875 1.421875 C 3.472656 1.597656 3.132812 1.675781 2.78125 1.65625 C 2.4375 1.632812 2.128906 1.53125 1.859375 1.34375 C 1.460938 1.050781 1.234375 0.671875 1.171875 0.203125 C 1.117188 -0.265625 1.226562 -0.6875 1.5 -1.0625 C 1.625 -1.238281 1.816406 -1.410156 2.078125 -1.578125 L 22.734375 -14.28125 C 23.460938 -14.71875 24.132812 -14.710938 24.75 -14.265625 C 25.40625 -13.796875 25.617188 -13.164062 25.390625 -12.375 Z M 10.671875 -2.921875 L 18.484375 2.703125 L 21.5625 -9.71875 Z M 10.671875 -2.921875 "/></g></g><g style="fill:rgb(21.569824%,21.569824%,21.569824%);fill-opacity:0.4;"><g transform="translate(724.455474, 18.42554)"><path style="stroke:none;" d="M 9.21875 7.03125 C 7.46875 5.769531 6.160156 4.226562 5.296875 2.40625 C 4.429688 0.582031 4.191406 -1.160156 4.578125 -2.828125 C 4.640625 -3.097656 4.722656 -3.304688 4.828125 -3.453125 C 5.023438 -3.722656 5.296875 -3.890625 5.640625 -3.953125 C 5.992188 -4.023438 6.367188 -3.972656 6.765625 -3.796875 C 6.828125 -3.773438 6.921875 -3.722656 7.046875 -3.640625 C 7.328125 -3.429688 7.539062 -3.148438 7.6875 -2.796875 C 7.832031 -2.441406 7.863281 -2.070312 7.78125 -1.6875 C 7.601562 -0.738281 7.8125 0.320312 8.40625 1.5 C 9.007812 2.675781 9.882812 3.675781 11.03125 4.5 C 12.382812 5.476562 13.753906 5.988281 15.140625 6.03125 C 16.535156 6.082031 17.625 5.566406 18.40625 4.484375 C 19.144531 3.453125 19.378906 2.285156 19.109375 0.984375 C 18.835938 -0.316406 17.945312 -1.632812 16.4375 -2.96875 C 14.363281 -4.78125 13.078125 -6.691406 12.578125 -8.703125 C 12.085938 -10.722656 12.429688 -12.554688 13.609375 -14.203125 C 14.441406 -15.347656 15.488281 -16.101562 16.75 -16.46875 C 18.007812 -16.84375 19.367188 -16.832031 20.828125 -16.4375 C 22.296875 -16.050781 23.742188 -15.347656 25.171875 -14.328125 C 26.722656 -13.210938 27.800781 -11.957031 28.40625 -10.5625 C 29.019531 -9.164062 29.269531 -7.613281 29.15625 -5.90625 C 29.132812 -5.414062 29.015625 -5.015625 28.796875 -4.703125 C 28.503906 -4.304688 28.09375 -4.113281 27.5625 -4.125 C 27.257812 -4.144531 26.972656 -4.253906 26.703125 -4.453125 C 26.429688 -4.640625 26.226562 -4.882812 26.09375 -5.1875 C 25.96875 -5.488281 25.921875 -5.800781 25.953125 -6.125 C 26.046875 -7.289062 25.878906 -8.347656 25.453125 -9.296875 C 25.035156 -10.253906 24.269531 -11.132812 23.15625 -11.9375 C 21.78125 -12.925781 20.476562 -13.453125 19.25 -13.515625 C 18.019531 -13.585938 17.039062 -13.117188 16.3125 -12.109375 C 15.632812 -11.171875 15.445312 -10.113281 15.75 -8.9375 C 16.050781 -7.769531 17.109375 -6.390625 18.921875 -4.796875 C 20.929688 -3.015625 22.140625 -1.15625 22.546875 0.78125 C 22.953125 2.726562 22.515625 4.597656 21.234375 6.390625 C 20.296875 7.691406 19.140625 8.550781 17.765625 8.96875 C 16.390625 9.394531 14.957031 9.414062 13.46875 9.03125 C 11.976562 8.65625 10.5625 7.988281 9.21875 7.03125 Z M 9.21875 7.03125 "/></g></g><g style="fill:rgb(21.569824%,21.569824%,21.569824%);fill-opacity:0.4;"><g transform="translate(743.073922, 31.811609)"><path style="stroke:none;" d="M 32.015625 -9.0625 C 32.347656 -8.8125 32.53125 -8.476562 32.5625 -8.0625 C 32.601562 -7.644531 32.492188 -7.253906 32.234375 -6.890625 C 32.015625 -6.585938 31.71875 -6.359375 31.34375 -6.203125 L 15.984375 -0.21875 L 11.453125 6.09375 C 11.160156 6.488281 10.78125 6.722656 10.3125 6.796875 C 9.851562 6.878906 9.425781 6.78125 9.03125 6.5 C 8.65625 6.226562 8.425781 5.859375 8.34375 5.390625 C 8.269531 4.929688 8.378906 4.503906 8.671875 4.109375 L 13.203125 -2.203125 L 14.0625 -18.625 C 14.082031 -19.070312 14.1875 -19.429688 14.375 -19.703125 C 14.644531 -20.085938 15.015625 -20.304688 15.484375 -20.359375 C 15.953125 -20.410156 16.375 -20.300781 16.75 -20.03125 C 17.039062 -19.820312 17.226562 -19.585938 17.3125 -19.328125 C 17.394531 -19.066406 17.429688 -18.738281 17.421875 -18.34375 L 16.546875 -3.75 L 30.265625 -9.28125 C 30.890625 -9.519531 31.472656 -9.445312 32.015625 -9.0625 Z M 32.015625 -9.0625 "/></g></g><g style="fill:rgb(21.569824%,21.569824%,21.569824%);fill-opacity:1;"><g transform="translate(686.151771, -10.927961)"><path style="stroke:none;" d="M 4.109375 2.953125 C 3.710938 2.671875 3.472656 2.296875 3.390625 1.828125 C 3.316406 1.359375 3.425781 0.925781 3.71875 0.53125 L 16.890625 -17.796875 C 17.179688 -18.203125 17.554688 -18.4375 18.015625 -18.5 C 18.484375 -18.570312 18.914062 -18.46875 19.3125 -18.1875 L 31.546875 -9.390625 C 31.960938 -9.097656 32.207031 -8.738281 32.28125 -8.3125 C 32.351562 -7.882812 32.242188 -7.46875 31.953125 -7.0625 C 31.691406 -6.695312 31.347656 -6.484375 30.921875 -6.421875 C 30.503906 -6.367188 30.085938 -6.488281 29.671875 -6.78125 L 18.84375 -14.5625 L 14.109375 -8 L 21.875 -2.421875 C 22.269531 -2.128906 22.515625 -1.765625 22.609375 -1.328125 C 22.703125 -0.898438 22.609375 -0.492188 22.328125 -0.109375 C 22.066406 0.265625 21.710938 0.476562 21.265625 0.53125 C 20.828125 0.59375 20.410156 0.476562 20.015625 0.1875 L 12.25 -5.390625 L 7.390625 1.375 L 18.21875 9.15625 C 18.632812 9.445312 18.878906 9.800781 18.953125 10.21875 C 19.035156 10.632812 18.941406 11.03125 18.671875 11.40625 C 18.390625 11.800781 18.035156 12.03125 17.609375 12.09375 C 17.179688 12.15625 16.757812 12.039062 16.34375 11.75 Z M 4.109375 2.953125 "/></g></g><g style="fill:rgb(21.569824%,21.569824%,21.569824%);fill-opacity:1;"><g transform="translate(705.094953, 2.691582)"><path style="stroke:none;" d="M 19.9375 11.328125 C 19.863281 11.628906 19.769531 11.863281 19.65625 12.03125 C 19.375 12.40625 19 12.628906 18.53125 12.703125 C 18.070312 12.785156 17.640625 12.679688 17.234375 12.390625 C 16.960938 12.203125 16.757812 11.941406 16.625 11.609375 C 16.488281 11.285156 16.46875 10.945312 16.5625 10.59375 L 17.765625 5.71875 L 8.046875 -1.265625 L 3.796875 1.421875 C 3.472656 1.597656 3.132812 1.675781 2.78125 1.65625 C 2.4375 1.632812 2.128906 1.53125 1.859375 1.34375 C 1.460938 1.050781 1.234375 0.671875 1.171875 0.203125 C 1.117188 -0.265625 1.226562 -0.6875 1.5 -1.0625 C 1.625 -1.238281 1.816406 -1.410156 2.078125 -1.578125 L 22.734375 -14.28125 C 23.460938 -14.71875 24.132812 -14.710938 24.75 -14.265625 C 25.40625 -13.796875 25.617188 -13.164062 25.390625 -12.375 Z M 10.671875 -2.921875 L 18.484375 2.703125 L 21.5625 -9.71875 Z M 10.671875 -2.921875 "/></g></g><g style="fill:rgb(21.569824%,21.569824%,21.569824%);fill-opacity:1;"><g transform="translate(724.11933, 16.369501)"><path style="stroke:none;" d="M 9.21875 7.03125 C 7.46875 5.769531 6.160156 4.226562 5.296875 2.40625 C 4.429688 0.582031 4.191406 -1.160156 4.578125 -2.828125 C 4.640625 -3.097656 4.722656 -3.304688 4.828125 -3.453125 C 5.023438 -3.722656 5.296875 -3.890625 5.640625 -3.953125 C 5.992188 -4.023438 6.367188 -3.972656 6.765625 -3.796875 C 6.828125 -3.773438 6.921875 -3.722656 7.046875 -3.640625 C 7.328125 -3.429688 7.539062 -3.148438 7.6875 -2.796875 C 7.832031 -2.441406 7.863281 -2.070312 7.78125 -1.6875 C 7.601562 -0.738281 7.8125 0.320312 8.40625 1.5 C 9.007812 2.675781 9.882812 3.675781 11.03125 4.5 C 12.382812 5.476562 13.753906 5.988281 15.140625 6.03125 C 16.535156 6.082031 17.625 5.566406 18.40625 4.484375 C 19.144531 3.453125 19.378906 2.285156 19.109375 0.984375 C 18.835938 -0.316406 17.945312 -1.632812 16.4375 -2.96875 C 14.363281 -4.78125 13.078125 -6.691406 12.578125 -8.703125 C 12.085938 -10.722656 12.429688 -12.554688 13.609375 -14.203125 C 14.441406 -15.347656 15.488281 -16.101562 16.75 -16.46875 C 18.007812 -16.84375 19.367188 -16.832031 20.828125 -16.4375 C 22.296875 -16.050781 23.742188 -15.347656 25.171875 -14.328125 C 26.722656 -13.210938 27.800781 -11.957031 28.40625 -10.5625 C 29.019531 -9.164062 29.269531 -7.613281 29.15625 -5.90625 C 29.132812 -5.414062 29.015625 -5.015625 28.796875 -4.703125 C 28.503906 -4.304688 28.09375 -4.113281 27.5625 -4.125 C 27.257812 -4.144531 26.972656 -4.253906 26.703125 -4.453125 C 26.429688 -4.640625 26.226562 -4.882812 26.09375 -5.1875 C 25.96875 -5.488281 25.921875 -5.800781 25.953125 -6.125 C 26.046875 -7.289062 25.878906 -8.347656 25.453125 -9.296875 C 25.035156 -10.253906 24.269531 -11.132812 23.15625 -11.9375 C 21.78125 -12.925781 20.476562 -13.453125 19.25 -13.515625 C 18.019531 -13.585938 17.039062 -13.117188 16.3125 -12.109375 C 15.632812 -11.171875 15.445312 -10.113281 15.75 -8.9375 C 16.050781 -7.769531 17.109375 -6.390625 18.921875 -4.796875 C 20.929688 -3.015625 22.140625 -1.15625 22.546875 0.78125 C 22.953125 2.726562 22.515625 4.597656 21.234375 6.390625 C 20.296875 7.691406 19.140625 8.550781 17.765625 8.96875 C 16.390625 9.394531 14.957031 9.414062 13.46875 9.03125 C 11.976562 8.65625 10.5625 7.988281 9.21875 7.03125 Z M 9.21875 7.03125 "/></g></g><g style="fill:rgb(21.569824%,21.569824%,21.569824%);fill-opacity:1;"><g transform="translate(742.737779, 29.75557)"><path style="stroke:none;" d="M 32.015625 -9.0625 C 32.347656 -8.8125 32.53125 -8.476562 32.5625 -8.0625 C 32.601562 -7.644531 32.492188 -7.253906 32.234375 -6.890625 C 32.015625 -6.585938 31.71875 -6.359375 31.34375 -6.203125 L 15.984375 -0.21875 L 11.453125 6.09375 C 11.160156 6.488281 10.78125 6.722656 10.3125 6.796875 C 9.851562 6.878906 9.425781 6.78125 9.03125 6.5 C 8.65625 6.226562 8.425781 5.859375 8.34375 5.390625 C 8.269531 4.929688 8.378906 4.503906 8.671875 4.109375 L 13.203125 -2.203125 L 14.0625 -18.625 C 14.082031 -19.070312 14.1875 -19.429688 14.375 -19.703125 C 14.644531 -20.085938 15.015625 -20.304688 15.484375 -20.359375 C 15.953125 -20.410156 16.375 -20.300781 16.75 -20.03125 C 17.039062 -19.820312 17.226562 -19.585938 17.3125 -19.328125 C 17.394531 -19.066406 17.429688 -18.738281 17.421875 -18.34375 L 16.546875 -3.75 L 30.265625 -9.28125 C 30.890625 -9.519531 31.472656 -9.445312 32.015625 -9.0625 Z M 32.015625 -9.0625 "/></g></g></g></svg>