<?xml version="1.0" encoding="UTF-8"?><svg xmlns="http://www.w3.org/2000/svg" xmlns:xlink="http://www.w3.org/1999/xlink" contentScriptType="text/ecmascript" width="600pt" zoomAndPan="magnify" contentStyleType="text/css" viewBox="0 0 600 599.999999" height="599.999999pt" preserveAspectRatio="xMidYMid meet" version="1.2"><defs><g/></defs><g xml:id="surface1" id="surface1"><rect x="0" width="600" y="0" height="599.999999" style="fill:rgb(100%,100%,100%);fill-opacity:1;stroke:none;"/><rect x="0" width="600" y="0" height="599.999999" style="fill:rgb(100%,100%,100%);fill-opacity:1;stroke:none;"/><rect x="0" width="600" y="0" height="599.999999" style="fill:rgb(88.62915%,90.979004%,86.669922%);fill-opacity:1;stroke:none;"/><g style="fill:rgb(100%,0%,100%);fill-opacity:1;"><g transform="translate(113.178737, 429.083)"><path style="stroke:none;" d="M 267.109375 -221.78125 C 282.878906 -221.78125 296.847656 -218.035156 309.015625 -210.546875 C 321.179688 -203.066406 330.671875 -192.441406 337.484375 -178.671875 C 344.304688 -164.898438 347.71875 -148.925781 347.71875 -130.75 L 347.71875 -15.234375 C 347.71875 -10.691406 346.3125 -7.015625 343.5 -4.203125 C 340.695312 -1.398438 337.023438 0 332.484375 0 C 327.929688 0 324.1875 -1.398438 321.25 -4.203125 C 318.3125 -7.015625 316.84375 -10.691406 316.84375 -15.234375 L 316.84375 -130.75 C 316.84375 -149.726562 311.960938 -164.765625 302.203125 -175.859375 C 292.441406 -186.960938 279.675781 -192.515625 263.90625 -192.515625 C 247.050781 -192.515625 233.410156 -186.898438 222.984375 -175.671875 C 212.554688 -164.441406 207.476562 -149.734375 207.75 -131.546875 L 207.75 -15.234375 C 207.75 -10.691406 206.34375 -7.015625 203.53125 -4.203125 C 200.726562 -1.398438 197.054688 0 192.515625 0 C 187.960938 0 184.21875 -1.398438 181.28125 -4.203125 C 178.34375 -7.015625 176.875 -10.691406 176.875 -15.234375 L 176.875 -130.75 C 176.875 -149.726562 171.992188 -164.765625 162.234375 -175.859375 C 152.472656 -186.960938 139.703125 -192.515625 123.921875 -192.515625 C 107.347656 -192.515625 93.710938 -187.03125 83.015625 -176.0625 C 72.328125 -165.101562 66.984375 -151.066406 66.984375 -133.953125 L 66.984375 -15.234375 C 66.984375 -10.691406 65.578125 -7.015625 62.765625 -4.203125 C 59.960938 -1.398438 56.285156 0 51.734375 0 C 47.191406 0 43.445312 -1.398438 40.5 -4.203125 C 37.5625 -7.015625 36.09375 -10.691406 36.09375 -15.234375 L 36.09375 -203.734375 C 36.09375 -208.285156 37.5625 -212.03125 40.5 -214.96875 C 43.445312 -217.90625 47.191406 -219.375 51.734375 -219.375 C 56.285156 -219.375 59.960938 -217.90625 62.765625 -214.96875 C 65.578125 -212.03125 66.984375 -208.285156 66.984375 -203.734375 L 66.984375 -194.921875 C 74.460938 -203.472656 83.347656 -210.085938 93.640625 -214.765625 C 103.941406 -219.441406 115.109375 -221.78125 127.140625 -221.78125 C 141.835938 -221.78125 155.066406 -218.4375 166.828125 -211.75 C 178.597656 -205.070312 187.960938 -195.71875 194.921875 -183.6875 C 202.671875 -195.71875 212.757812 -205.070312 225.1875 -211.75 C 237.625 -218.4375 251.597656 -221.78125 267.109375 -221.78125 Z M 267.109375 -221.78125 "/></g></g><g style="fill:rgb(0%,100%,100%);fill-opacity:1;"><g transform="translate(107.016565, 431.204804)"><path style="stroke:none;" d="M 267.109375 -221.78125 C 282.878906 -221.78125 296.847656 -218.035156 309.015625 -210.546875 C 321.179688 -203.066406 330.671875 -192.441406 337.484375 -178.671875 C 344.304688 -164.898438 347.71875 -148.925781 347.71875 -130.75 L 347.71875 -15.234375 C 347.71875 -10.691406 346.3125 -7.015625 343.5 -4.203125 C 340.695312 -1.398438 337.023438 0 332.484375 0 C 327.929688 0 324.1875 -1.398438 321.25 -4.203125 C 318.3125 -7.015625 316.84375 -10.691406 316.84375 -15.234375 L 316.84375 -130.75 C 316.84375 -149.726562 311.960938 -164.765625 302.203125 -175.859375 C 292.441406 -186.960938 279.675781 -192.515625 263.90625 -192.515625 C 247.050781 -192.515625 233.410156 -186.898438 222.984375 -175.671875 C 212.554688 -164.441406 207.476562 -149.734375 207.75 -131.546875 L 207.75 -15.234375 C 207.75 -10.691406 206.34375 -7.015625 203.53125 -4.203125 C 200.726562 -1.398438 197.054688 0 192.515625 0 C 187.960938 0 184.21875 -1.398438 181.28125 -4.203125 C 178.34375 -7.015625 176.875 -10.691406 176.875 -15.234375 L 176.875 -130.75 C 176.875 -149.726562 171.992188 -164.765625 162.234375 -175.859375 C 152.472656 -186.960938 139.703125 -192.515625 123.921875 -192.515625 C 107.347656 -192.515625 93.710938 -187.03125 83.015625 -176.0625 C 72.328125 -165.101562 66.984375 -151.066406 66.984375 -133.953125 L 66.984375 -15.234375 C 66.984375 -10.691406 65.578125 -7.015625 62.765625 -4.203125 C 59.960938 -1.398438 56.285156 0 51.734375 0 C 47.191406 0 43.445312 -1.398438 40.5 -4.203125 C 37.5625 -7.015625 36.09375 -10.691406 36.09375 -15.234375 L 36.09375 -203.734375 C 36.09375 -208.285156 37.5625 -212.03125 40.5 -214.96875 C 43.445312 -217.90625 47.191406 -219.375 51.734375 -219.375 C 56.285156 -219.375 59.960938 -217.90625 62.765625 -214.96875 C 65.578125 -212.03125 66.984375 -208.285156 66.984375 -203.734375 L 66.984375 -194.921875 C 74.460938 -203.472656 83.347656 -210.085938 93.640625 -214.765625 C 103.941406 -219.441406 115.109375 -221.78125 127.140625 -221.78125 C 141.835938 -221.78125 155.066406 -218.4375 166.828125 -211.75 C 178.597656 -205.070312 187.960938 -195.71875 194.921875 -183.6875 C 202.671875 -195.71875 212.757812 -205.070312 225.1875 -211.75 C 237.625 -218.4375 251.597656 -221.78125 267.109375 -221.78125 Z M 267.109375 -221.78125 "/></g></g><g style="fill:rgb(13.328552%,28.239441%,43.919373%);fill-opacity:1;"><g transform="translate(110.097651, 430.143902)"><path style="stroke:none;" d="M 267.109375 -221.78125 C 282.878906 -221.78125 296.847656 -218.035156 309.015625 -210.546875 C 321.179688 -203.066406 330.671875 -192.441406 337.484375 -178.671875 C 344.304688 -164.898438 347.71875 -148.925781 347.71875 -130.75 L 347.71875 -15.234375 C 347.71875 -10.691406 346.3125 -7.015625 343.5 -4.203125 C 340.695312 -1.398438 337.023438 0 332.484375 0 C 327.929688 0 324.1875 -1.398438 321.25 -4.203125 C 318.3125 -7.015625 316.84375 -10.691406 316.84375 -15.234375 L 316.84375 -130.75 C 316.84375 -149.726562 311.960938 -164.765625 302.203125 -175.859375 C 292.441406 -186.960938 279.675781 -192.515625 263.90625 -192.515625 C 247.050781 -192.515625 233.410156 -186.898438 222.984375 -175.671875 C 212.554688 -164.441406 207.476562 -149.734375 207.75 -131.546875 L 207.75 -15.234375 C 207.75 -10.691406 206.34375 -7.015625 203.53125 -4.203125 C 200.726562 -1.398438 197.054688 0 192.515625 0 C 187.960938 0 184.21875 -1.398438 181.28125 -4.203125 C 178.34375 -7.015625 176.875 -10.691406 176.875 -15.234375 L 176.875 -130.75 C 176.875 -149.726562 171.992188 -164.765625 162.234375 -175.859375 C 152.472656 -186.960938 139.703125 -192.515625 123.921875 -192.515625 C 107.347656 -192.515625 93.710938 -187.03125 83.015625 -176.0625 C 72.328125 -165.101562 66.984375 -151.066406 66.984375 -133.953125 L 66.984375 -15.234375 C 66.984375 -10.691406 65.578125 -7.015625 62.765625 -4.203125 C 59.960938 -1.398438 56.285156 0 51.734375 0 C 47.191406 0 43.445312 -1.398438 40.5 -4.203125 C 37.5625 -7.015625 36.09375 -10.691406 36.09375 -15.234375 L 36.09375 -203.734375 C 36.09375 -208.285156 37.5625 -212.03125 40.5 -214.96875 C 43.445312 -217.90625 47.191406 -219.375 51.734375 -219.375 C 56.285156 -219.375 59.960938 -217.90625 62.765625 -214.96875 C 65.578125 -212.03125 66.984375 -208.285156 66.984375 -203.734375 L 66.984375 -194.921875 C 74.460938 -203.472656 83.347656 -210.085938 93.640625 -214.765625 C 103.941406 -219.441406 115.109375 -221.78125 127.140625 -221.78125 C 141.835938 -221.78125 155.066406 -218.4375 166.828125 -211.75 C 178.597656 -205.070312 187.960938 -195.71875 194.921875 -183.6875 C 202.671875 -195.71875 212.757812 -205.070312 225.1875 -211.75 C 237.625 -218.4375 251.597656 -221.78125 267.109375 -221.78125 Z M 267.109375 -221.78125 "/></g></g><path style="fill:none;stroke-width:0.9;stroke-linecap:butt;stroke-linejoin:miter;stroke:rgb(13.328552%,28.239441%,43.919373%);stroke-opacity:1;stroke-miterlimit:4;" d="M 17.460692 17.232715 C 17.460692 17.537332 17.355282 17.789244 17.144462 17.988451 C 16.937215 18.187658 16.67369 18.286815 16.353887 18.286815 L 7.235923 18.286815 C 7.411904 19.407913 7.920195 20.312831 8.759901 20.999782 C 9.599608 21.687627 10.626909 22.03155 11.841804 22.03155 C 12.322402 22.03155 12.822653 21.943112 13.341663 21.768025 C 13.861566 21.592044 14.289459 21.37497 14.625342 21.116805 C 14.851348 20.941717 15.117553 20.85328 15.42217 20.85328 C 15.722321 20.85328 15.960833 20.933678 16.136814 21.093579 C 16.425352 21.335665 16.570067 21.609016 16.570067 21.913633 C 16.570067 22.199491 16.443218 22.43979 16.189519 22.63453 C 15.642816 23.06421 14.964798 23.416172 14.156357 23.689524 C 13.351489 23.959302 12.579674 24.094191 11.841804 24.094191 C 10.529539 24.094191 9.353949 23.81012 8.314142 23.243765 C 7.275228 22.677409 6.463214 21.890407 5.877206 20.882759 C 5.294771 19.871538 5.003554 18.726321 5.003554 17.448895 C 5.003554 16.167895 5.279585 15.019105 5.829861 14.004311 C 6.384603 12.988623 7.151952 12.197155 8.132801 11.630799 C 9.117223 11.060871 10.234748 10.775013 11.484482 10.775013 C 12.714563 10.775013 13.777596 11.049258 14.671794 11.59596 C 15.570459 12.13909 16.26009 12.898399 16.739795 13.874782 C 17.220393 14.847591 17.460692 15.966902 17.460692 17.232715 Z M 11.484482 12.837654 C 10.316039 12.837654 9.367349 13.158351 8.636625 13.798851 C 7.910368 14.43935 7.451209 15.295136 7.260042 16.365316 L 15.251549 16.365316 C 15.107727 15.295136 14.706633 14.43935 14.050947 13.798851 C 13.394368 13.158351 12.539475 12.837654 11.484482 12.837654 Z M 26.528631 10.775013 C 27.763179 10.775013 28.880703 11.068017 29.880312 11.654025 C 30.880813 12.23646 31.671388 13.035075 32.253823 14.050763 C 32.839831 15.06645 33.132835 16.199161 33.132835 17.448895 L 33.132835 22.798899 C 33.132835 23.149967 33.014919 23.442972 32.780873 23.677911 C 32.5504 23.908383 32.259183 24.02362 31.908114 24.02362 C 31.556152 24.02362 31.263148 23.908383 31.029102 23.677911 C 30.798629 23.442972 30.683393 23.149967 30.683393 22.798899 L 30.683393 21.913633 C 30.125077 22.601478 29.445272 23.136568 28.643978 23.519796 C 27.843576 23.90213 26.97975 24.094191 26.054286 24.094191 C 24.901923 24.094191 23.856756 23.806547 22.919679 23.232152 C 21.981709 22.654183 21.245625 21.857355 20.710536 20.841667 C 20.175446 19.82598 19.907455 18.695055 19.907455 17.448895 C 19.907455 16.199161 20.195099 15.06645 20.769494 14.050763 C 21.347462 13.035075 22.14429 12.23646 23.159978 11.654025 C 24.175666 11.068017 25.29855 10.775013 26.528631 10.775013 Z M 26.528631 21.937753 C 27.329926 21.937753 28.054396 21.742119 28.702936 21.351744 C 29.351475 20.956904 29.858872 20.420027 30.226021 19.740222 C 30.593169 19.060417 30.77719 18.296641 30.77719 17.448895 C 30.77719 16.601148 30.593169 15.833799 30.226021 15.146848 C 29.858872 14.45543 29.351475 13.914087 28.702936 13.523713 C 28.054396 13.132445 27.329926 12.937705 26.528631 12.937705 C 25.731803 12.937705 25.00912 13.132445 24.36058 13.523713 C 23.712934 13.914087 23.199284 14.45543 22.819629 15.146848 C 22.445334 15.833799 22.25774 16.601148 22.25774 17.448895 C 22.25774 18.296641 22.445334 19.060417 22.819629 19.740222 C 23.199284 20.420027 23.712934 20.956904 24.36058 21.351744 C 25.00912 21.742119 25.731803 21.937753 26.528631 21.937753 Z M 41.556702 24.094191 C 40.466869 24.094191 39.442249 23.925356 38.481052 23.589474 C 37.523429 23.253591 36.77216 22.814085 36.224564 22.271849 C 36.018211 22.064602 35.914587 21.816263 35.914587 21.527726 C 35.914587 21.144498 36.074489 20.831841 36.395185 20.589755 C 36.699802 20.367322 36.978513 20.255659 37.233105 20.255659 C 37.552909 20.255659 37.857526 20.400375 38.146956 20.689805 C 38.451573 21.025688 38.906266 21.318692 39.511926 21.567924 C 40.12116 21.814476 40.7697 21.937753 41.457545 21.937753 C 42.371396 21.937753 43.08068 21.784997 43.584504 21.48038 C 44.088328 21.175763 44.34024 20.767523 44.34024 20.255659 C 44.34024 19.759875 44.091901 19.348061 43.596117 19.019325 C 43.100333 18.691482 42.259733 18.416344 41.076997 18.193018 C 38.002241 17.599863 36.464863 16.335837 36.464863 14.402725 C 36.464863 13.61751 36.698016 12.952891 37.162534 12.409761 C 37.627053 11.863059 38.2345 11.454818 38.984876 11.185933 C 39.738826 10.911689 40.539227 10.775013 41.386974 10.775013 C 42.425887 10.775013 43.357604 10.942954 44.182125 11.27973 C 45.006646 11.615613 45.658758 12.080132 46.139356 12.67418 C 46.34571 12.927878 46.449333 13.183363 46.449333 13.441529 C 46.449333 13.711307 46.314444 13.958752 46.045559 14.185652 C 45.869578 14.314288 45.645359 14.378606 45.371114 14.378606 C 44.957514 14.378606 44.580539 14.226744 44.24019 13.922127 C 43.841776 13.550512 43.418349 13.291453 42.969017 13.142271 C 42.524151 12.99041 41.981021 12.914479 41.340522 12.914479 C 40.601759 12.914479 39.996098 13.038648 39.523539 13.288773 C 39.055448 13.535326 38.820508 13.881035 38.820508 14.325901 C 38.820508 14.646597 38.900906 14.916375 39.060807 15.134342 C 39.220709 15.349628 39.523539 15.548835 39.969299 15.732856 C 40.418631 15.915983 41.06717 16.095538 41.914024 16.271519 C 43.660435 16.623481 44.896769 17.111226 45.623026 17.736539 C 46.350176 18.360959 46.712858 19.170294 46.712858 20.161862 C 46.712858 20.896159 46.513651 21.564351 46.115237 22.166439 C 45.716823 22.76406 45.129028 23.233938 44.351853 23.577861 C 43.574678 23.921783 42.64296 24.094191 41.556702 24.094191 Z M 59.844442 10.992086 C 60.341119 11.183254 60.588565 11.49591 60.588565 11.930057 C 60.588565 12.089958 60.540326 12.281125 60.442956 12.503558 L 53.100882 29.015408 C 52.909715 29.512086 52.597058 29.759531 52.162912 29.759531 C 52.00301 29.759531 51.811843 29.711293 51.58941 29.613029 C 51.108812 29.406676 50.868513 29.095806 50.868513 28.681312 C 50.868513 28.490145 50.914965 28.297191 51.008762 28.101557 L 53.410859 22.705102 L 48.009044 12.457106 C 47.930433 12.312391 47.892021 12.14445 47.892021 11.953282 C 47.892021 11.746036 47.954552 11.554868 48.079615 11.378887 C 48.208251 11.199333 48.377979 11.062657 48.588799 10.96886 C 48.733514 10.902756 48.893416 10.86881 49.069397 10.86881 C 49.515156 10.86881 49.851039 11.093923 50.077045 11.543255 L 54.465852 20.278885 L 58.33297 11.566481 C 58.540217 11.101963 58.851087 10.86881 59.264687 10.86881 C 59.475507 10.86881 59.669354 10.909902 59.844442 10.992086 Z M 59.844442 10.992086 " transform="matrix(4.372807,0,0,4.372807,159.819646,404.734515)"/></g></svg>